<svg width="23" height="20" viewBox="0 0 23 20" fill="none" xmlns="http://www.w3.org/2000/svg">
<path d="M2 9H22C22.2652 9 22.5196 9.10536 22.7071 9.29289C22.8946 9.48043 23 9.73478 23 10C23 10.2652 22.8946 10.5196 22.7071 10.7071C22.5196 10.8946 22.2652 11 22 11H2C1.73478 11 1.48043 10.8946 1.29289 10.7071C1.10536 10.5196 1 10.2652 1 10C1 9.73478 1.10536 9.48043 1.29289 9.29289C1.48043 9.10536 1.73478 9 2 9Z" fill="#336699"/>
<path d="M2.41383 10L10.7078 18.292C10.8956 18.4798 11.0011 18.7345 11.0011 19C11.0011 19.2656 10.8956 19.5203 10.7078 19.708C10.5201 19.8958 10.2654 20.0013 9.99983 20.0013C9.73428 20.0013 9.47961 19.8958 9.29183 19.708L0.291834 10.708C0.198708 10.6151 0.124822 10.5048 0.0744095 10.3833C0.0239966 10.2618 -0.00195312 10.1316 -0.00195312 10C-0.00195313 9.86851 0.0239966 9.73826 0.0744095 9.61677C0.124822 9.49528 0.198708 9.38493 0.291834 9.29204L9.29183 0.292042C9.47961 0.104269 9.73428 -0.0012207 9.99983 -0.0012207C10.2654 -0.0012207 10.5201 0.104269 10.7078 0.292042C10.8956 0.479815 11.0011 0.734491 11.0011 1.00004C11.0011 1.26559 10.8956 1.52027 10.7078 1.70804L2.41383 10Z" fill="#336699"/>
</svg>
