<svg width="24" height="25" viewBox="0 0 24 25" fill="none" xmlns="http://www.w3.org/2000/svg">
<path d="M18.2878 11.2881C18.9518 17.432 21.5633 19.2895 21.5633 19.2895H0.991821C0.991821 19.2895 4.42039 16.8514 4.42039 8.31613C4.42039 6.37636 5.14268 4.51546 6.42839 3.14379C7.71411 1.77211 9.46039 1.00055 11.2775 1.00055C11.6638 1.00055 12.0448 1.03484 12.4204 1.10342M13.2547 22.7187C13.0538 23.0651 12.7654 23.3527 12.4184 23.5526C12.0714 23.7525 11.678 23.8577 11.2775 23.8577C10.8771 23.8577 10.4837 23.7525 10.1367 23.5526C9.78972 23.3527 9.50132 23.0651 9.30039 22.7187M19.2775 7.85891C20.1868 7.85891 21.0589 7.49762 21.7019 6.85452C22.3449 6.21143 22.7061 5.3392 22.7061 4.42973C22.7061 3.52025 22.3449 2.64803 21.7019 2.00493C21.0589 1.36184 20.1868 1.00055 19.2775 1.00055C18.3682 1.00055 17.4962 1.36184 16.8532 2.00493C16.2102 2.64803 15.849 3.52025 15.849 4.42973C15.849 5.3392 16.2102 6.21143 16.8532 6.85452C17.4962 7.49762 18.3682 7.85891 19.2775 7.85891Z" stroke="#336699" stroke-width="1.5" stroke-linecap="round" stroke-linejoin="round"/>
</svg>
