<svg width="23" height="24" viewBox="0 0 23 24" fill="none" xmlns="http://www.w3.org/2000/svg">
<path d="M11.4195 8.19062C10.4181 8.19062 9.45772 8.59211 8.74963 9.30678C8.04155 10.0214 7.64375 10.9907 7.64375 12.0014C7.64375 13.0121 8.04155 13.9814 8.74963 14.6961C9.45772 15.4107 10.4181 15.8122 11.4195 15.8122C12.4208 15.8122 13.3812 15.4107 14.0893 14.6961C14.7974 13.9814 15.1952 13.0121 15.1952 12.0014C15.1952 10.9907 14.7974 10.0214 14.0893 9.30678C13.3812 8.59211 12.4208 8.19062 11.4195 8.19062ZM9.53161 12.0014C9.53161 11.4961 9.73051 11.0114 10.0845 10.6541C10.4386 10.2968 10.9188 10.096 11.4195 10.096C11.9202 10.096 12.4003 10.2968 12.7544 10.6541C13.1084 11.0114 13.3073 11.4961 13.3073 12.0014C13.3073 12.5068 13.1084 12.9914 12.7544 13.3487C12.4003 13.7061 11.9202 13.9068 11.4195 13.9068C10.9188 13.9068 10.4386 13.7061 10.0845 13.3487C9.73051 12.9914 9.53161 12.5068 9.53161 12.0014ZM16.3619 5.13817C16.0138 5.20168 15.655 5.12376 15.3636 4.9214C15.0722 4.71903 14.8719 4.40861 14.8063 4.05781L14.3154 1.35977C14.2923 1.22796 14.2304 1.10623 14.1378 1.0104C14.0453 0.91457 13.9262 0.849078 13.7963 0.822444C12.2284 0.488507 10.6087 0.488507 9.04077 0.822444C8.9108 0.849078 8.79178 0.91457 8.69919 1.0104C8.6066 1.10623 8.54472 1.22796 8.52161 1.35977L8.03265 4.05781C7.99695 4.24997 7.9204 4.43204 7.80828 4.59147C7.69616 4.75091 7.55114 4.88392 7.38319 4.98135C7.21525 5.07878 7.02837 5.13831 6.83544 5.15585C6.64251 5.17338 6.44811 5.1485 6.26562 5.08291L3.70003 4.1607C3.57539 4.11695 3.44083 4.11077 3.31277 4.14292C3.1847 4.17506 3.06868 4.24414 2.97887 4.34171C1.90405 5.53666 1.09209 6.94774 0.596397 8.48214C0.55502 8.609 0.552334 8.74547 0.588686 8.87389C0.625038 9.0023 0.698753 9.11674 0.800285 9.20239L2.8807 10.9763C2.93734 11.0233 2.98831 11.0748 3.03362 11.1306C3.14736 11.2651 3.23366 11.4208 3.28756 11.589C3.34146 11.7572 3.36189 11.9345 3.34768 12.1107C3.33347 12.2869 3.2849 12.4585 3.20476 12.6156C3.12461 12.7728 3.01449 12.9124 2.8807 13.0265L0.800285 14.8004C0.698753 14.8861 0.625038 15.0005 0.588686 15.1289C0.552334 15.2574 0.55502 15.3938 0.596397 15.5207C1.09265 17.0553 1.90526 18.4664 2.98076 19.6611C3.07057 19.7587 3.18659 19.8278 3.31465 19.8599C3.44271 19.8921 3.57728 19.8859 3.70192 19.8421L6.2694 18.9199C6.45186 18.8537 6.64642 18.8283 6.83958 18.8455C7.03274 18.8627 7.21987 18.9222 7.38799 19.0197C7.55611 19.1172 7.70119 19.2505 7.81316 19.4103C7.92513 19.5701 8.00132 19.7525 8.03643 19.945L8.52349 22.6431C8.57258 22.9098 8.77835 23.1232 9.04265 23.1785C10.6112 23.5127 12.2315 23.5127 13.8 23.1785C13.9294 23.1516 14.0478 23.0863 14.14 22.9908C14.2322 22.8954 14.294 22.7743 14.3173 22.6431L14.8082 19.945C14.8439 19.7529 14.9204 19.5708 15.0325 19.4114C15.1446 19.2519 15.2897 19.1189 15.4576 19.0215C15.6256 18.924 15.8124 18.8645 16.0054 18.847C16.1983 18.8295 16.3927 18.8543 16.5752 18.9199L19.1408 19.8421C19.3956 19.9336 19.6807 19.8612 19.8619 19.6611C20.9368 18.4662 21.7487 17.0551 22.2444 15.5207C22.2858 15.3938 22.2885 15.2574 22.2521 15.1289C22.2158 15.0005 22.1421 14.8861 22.0405 14.8004L19.9601 13.0265C19.812 12.9008 19.6929 12.7439 19.6112 12.5668C19.5296 12.3897 19.4872 12.1967 19.4872 12.0014C19.4872 11.8061 19.5296 11.6131 19.6112 11.436C19.6929 11.259 19.812 11.102 19.9601 10.9763L22.0405 9.20239C22.1421 9.11674 22.2158 9.0023 22.2521 8.87389C22.2885 8.74547 22.2858 8.609 22.2444 8.48214C21.7476 6.94742 20.9343 5.53631 19.8582 4.34171C19.7684 4.24414 19.6523 4.17506 19.5243 4.14292C19.3962 4.11077 19.2616 4.11695 19.137 4.1607L16.5695 5.08291C16.5008 5.10601 16.4309 5.12509 16.36 5.14008M3.86238 6.24521L5.6313 6.8797C6.07145 7.03786 6.54037 7.0977 7.00567 7.05509C7.47097 7.01249 7.92156 6.86846 8.32633 6.63294C8.7311 6.39743 9.08039 6.07604 9.35009 5.69099C9.61978 5.30593 9.80345 4.86638 9.88841 4.40269L10.2226 2.55445C11.0154 2.45241 11.8179 2.45241 12.6107 2.55445L12.9467 4.40269C13.0311 4.8667 13.2144 5.30664 13.484 5.69205C13.7535 6.07746 14.1029 6.39912 14.5078 6.63473C14.9127 6.87035 15.3636 7.01429 15.8291 7.05659C16.2946 7.09889 16.7637 7.03854 17.2038 6.8797L18.9709 6.2414C19.4542 6.88034 19.8506 7.56882 20.1602 8.30685L18.7368 9.52059C18.3791 9.82537 18.0917 10.2053 17.8945 10.6337C17.6973 11.0622 17.5952 11.529 17.5952 12.0014C17.5952 12.4739 17.6973 12.9406 17.8945 13.3691C18.0917 13.7976 18.3791 14.1775 18.7368 14.4822L20.1621 15.696C19.8531 16.4321 19.4535 17.126 18.9728 17.7614L17.2038 17.125C16.7637 16.9669 16.2948 16.907 15.8295 16.9496C15.3642 16.9922 14.9136 17.1363 14.5088 17.3718C14.104 17.6073 13.7548 17.9287 13.4851 18.3137C13.2154 18.6988 13.0317 19.1384 12.9467 19.602L12.6107 21.4503C11.8179 21.5523 11.0154 21.5523 10.2226 21.4503L9.88841 19.602C9.80405 19.138 9.62074 18.6981 9.35119 18.3127C9.08164 17.9273 8.7323 17.6056 8.32736 17.37C7.92241 17.1344 7.47156 16.9904 7.00603 16.9481C6.5405 16.9058 6.07143 16.9662 5.6313 17.125L3.86805 17.7614C3.3873 17.126 2.98771 16.4321 2.6787 15.696L4.10214 14.4803C4.45948 14.1756 4.74665 13.7958 4.94363 13.3675C5.1406 12.9392 5.24265 12.4727 5.24265 12.0005C5.24265 11.5283 5.1406 11.0618 4.94363 10.6335C4.74665 10.2052 4.45948 9.82537 4.10214 9.52059L2.67681 8.30685C2.98894 7.56882 3.38539 6.88034 3.86616 6.2414" fill="#336699"/>
</svg>
