<svg width="96" height="96" viewBox="0 0 96 96" fill="none" xmlns="http://www.w3.org/2000/svg">
<g id="simple-line-icons:check" clip-path="url(#clip0_648_1082)">
<path id="Vector" d="M48 0C21.4905 0 0 21.4905 0 48C0 74.511 21.4905 96 48 96C74.511 96 96 74.511 96 48C96 21.4905 74.511 0 48 0ZM48 90.0945C24.8415 90.0945 6 71.1585 6 47.9998C6 24.8413 24.8415 5.99981 48 5.99981C71.1585 5.99981 90 24.8414 90 47.9998C90 71.1582 71.1585 90.0945 48 90.0945ZM67.1565 30.4365L38.9939 58.776L26.3114 46.0935C25.1399 44.922 23.2409 44.922 22.0679 46.0935C20.8964 47.265 20.8964 49.164 22.0679 50.3355L36.9164 65.1855C38.0879 66.3555 39.9869 66.3555 41.1599 65.1855C41.2949 65.0505 41.4105 64.9034 41.5155 64.7505L71.4015 34.6799C72.5715 33.5084 72.5715 31.6094 71.4015 30.4365C70.2285 29.265 68.3295 29.265 67.1565 30.4365Z" fill="#01D201"/>
</g>
<defs>
<clipPath id="clip0_648_1082">
<rect width="96" height="96" fill="white"/>
</clipPath>
</defs>
</svg>
