<svg width="57" height="57" viewBox="0 0 57 57" fill="none" xmlns="http://www.w3.org/2000/svg">
<path d="M17.0625 0.541656C14.8449 0.541656 12.7244 0.987842 10.7927 1.7827L7.2632 3.23225L17.2809 13.25L13.25 17.2809L3.23228 7.26317L1.78274 10.7927C0.987873 12.7244 0.541687 14.8449 0.541687 17.0625C0.541687 26.1573 7.96776 33.5833 17.0625 33.5833C18.635 33.5833 20.0641 33.1172 21.5055 32.7047L44.1472 55.3414C45.6167 56.8109 48.0688 56.8109 49.5383 55.3414L55.3464 49.5283C56.8054 48.0618 56.808 45.6086 55.3414 44.1422L32.7047 21.5054C33.1166 20.0642 33.5834 18.6349 33.5834 17.0625C33.5834 7.96773 26.1573 0.541656 17.0625 0.541656ZM17.0625 5.62499C23.4109 5.62499 28.5 10.7141 28.5 17.0625C28.5 18.6051 28.19 20.0662 27.6362 21.4161L26.9959 22.9848L50.8488 46.8377L46.8427 50.8488L22.9848 26.9909L21.4161 27.6362C20.0681 28.1913 18.6082 28.5 17.0625 28.5C10.7141 28.5 5.62502 23.4109 5.62502 17.0625C5.62502 16.9974 5.65868 16.9436 5.65977 16.8788L13.25 24.4691L24.4691 13.25L16.8788 5.65974C16.9436 5.65865 16.9975 5.62499 17.0625 5.62499Z" fill="#336699"/>
</svg>
