<svg width="41" height="41" viewBox="0 0 41 41" fill="none" xmlns="http://www.w3.org/2000/svg">
<path d="M20.5 20.5C17.7042 20.5 15.3108 19.5045 13.3198 17.5135C11.3288 15.5226 10.3333 13.1292 10.3333 10.3333C10.3333 7.53749 11.3288 5.14409 13.3198 3.15312C15.3108 1.16214 17.7042 0.166656 20.5 0.166656C23.2958 0.166656 25.6892 1.16214 27.6802 3.15312C29.6712 5.14409 30.6667 7.53749 30.6667 10.3333C30.6667 13.1292 29.6712 15.5226 27.6802 17.5135C25.6892 19.5045 23.2958 20.5 20.5 20.5ZM0.166656 40.8333V33.7167C0.166656 32.2764 0.53774 30.953 1.27991 29.7466C2.02207 28.5401 3.00655 27.6184 4.23332 26.9812C6.85971 25.668 9.52846 24.6836 12.2396 24.0278C14.9507 23.3721 17.7042 23.0434 20.5 23.0417C23.2958 23.04 26.0493 23.3687 28.7604 24.0278C31.4715 24.687 34.1403 25.6714 36.7667 26.9812C37.9951 27.6167 38.9804 28.5384 39.7226 29.7466C40.4648 30.9547 40.835 32.2781 40.8333 33.7167V40.8333H0.166656ZM5.24999 35.75H35.75V33.7167C35.75 33.2507 35.6339 32.8271 35.4018 32.4458C35.1696 32.0646 34.8621 31.768 34.4792 31.5562C32.1917 30.4125 29.883 29.5551 27.5531 28.9841C25.2233 28.413 22.8722 28.1267 20.5 28.125C18.1278 28.1233 15.7767 28.4097 13.4469 28.9841C11.117 29.5585 8.80832 30.4159 6.52082 31.5562C6.13957 31.768 5.83203 32.0646 5.5982 32.4458C5.36437 32.8271 5.2483 33.2507 5.24999 33.7167V35.75ZM20.5 15.4167C21.8979 15.4167 23.095 14.9193 24.0914 13.9247C25.0877 12.9301 25.585 11.7329 25.5833 10.3333C25.5816 8.93371 25.0843 7.73743 24.0914 6.74449C23.0984 5.75154 21.9013 5.25338 20.5 5.24999C19.0987 5.2466 17.9024 5.74477 16.9112 6.74449C15.9199 7.74421 15.4217 8.94049 15.4167 10.3333C15.4116 11.7262 15.9097 12.9233 16.9112 13.9247C17.9126 14.9261 19.1089 15.4234 20.5 15.4167Z" fill="#336699"/>
</svg>
