<svg width="41" height="49" viewBox="0 0 41 49" fill="none" xmlns="http://www.w3.org/2000/svg">
<path d="M30.5 17.8917C30.5 31.4388 10.1667 31.4388 10.1667 17.8917H15.25C15.25 24.6779 25.4167 24.6779 25.4167 17.8917M40.6667 40.7667V48.3917H0V40.7667C0 33.9804 13.5471 30.6 20.3333 30.6C27.1196 30.6 40.6667 33.9804 40.6667 40.7667ZM35.8375 40.7667C35.8375 39.14 27.8821 35.4292 20.3333 35.4292C12.7846 35.4292 4.82917 39.14 4.82917 40.7667V43.5625H35.8375M21.6042 0.100006C22.3158 0.100006 22.875 0.659173 22.875 1.37084V8.99584H25.4167V2.64167C27.2154 3.47413 28.7225 4.828 29.7422 6.52759C30.762 8.22718 31.2474 10.194 31.1354 12.1729C31.1354 12.1729 32.9146 12.5288 33.0417 15.35H7.625C7.625 12.5288 9.53125 12.1729 9.53125 12.1729C9.41929 10.194 9.90469 8.22718 10.9244 6.52759C11.9442 4.828 13.4512 3.47413 15.25 2.64167V8.99584H17.7917V1.37084C17.7917 0.659173 18.3508 0.100006 19.0625 0.100006" fill="#336699"/>
</svg>
