<svg width="18" height="17" viewBox="0 0 18 17" fill="none" xmlns="http://www.w3.org/2000/svg">
<g id="edit" clip-path="url(#clip0_313_177)">
<path id="Vector" d="M8.08472 2.83333H3.13189C2.75658 2.83333 2.39665 2.98258 2.13127 3.24826C1.86589 3.51394 1.7168 3.87427 1.7168 4.24999V14.1667C1.7168 14.5424 1.86589 14.9027 2.13127 15.1684C2.39665 15.4341 2.75658 15.5833 3.13189 15.5833H13.0376C13.4129 15.5833 13.7728 15.4341 14.0382 15.1684C14.3036 14.9027 14.4526 14.5424 14.4526 14.1667V9.20833" stroke="#006FFF" stroke-width="2" stroke-linecap="round" stroke-linejoin="round"/>
<path id="Vector_2" d="M13.3912 1.77084C13.6726 1.48904 14.0544 1.33073 14.4525 1.33073C14.8506 1.33073 15.2323 1.48904 15.5138 1.77084C15.7953 2.05263 15.9534 2.43482 15.9534 2.83334C15.9534 3.23185 15.7953 3.61404 15.5138 3.89584L8.7921 10.625L5.96191 11.3333L6.66946 8.5L13.3912 1.77084Z" stroke="#006FFF" stroke-width="2" stroke-linecap="round" stroke-linejoin="round"/>
</g>
<defs>
<clipPath id="clip0_313_177">
<rect width="16.9811" height="17" fill="white" transform="translate(0.301758)"/>
</clipPath>
</defs>
</svg>
