<svg width="18" height="17" viewBox="0 0 18 17" fill="none" xmlns="http://www.w3.org/2000/svg">
<g id="trash-2">
<path id="Vector" d="M2.72656 4.25H4.14166H15.4624" stroke="#D31B1B" stroke-width="2" stroke-linecap="round" stroke-linejoin="round"/>
<path id="Vector_2" d="M14.0473 4.25001V14.1667C14.0473 14.5424 13.8982 14.9027 13.6328 15.1684C13.3674 15.4341 13.0075 15.5833 12.6322 15.5833H5.5567C5.18139 15.5833 4.82145 15.4341 4.55607 15.1684C4.29069 14.9027 4.1416 14.5424 4.1416 14.1667V4.25001M6.26424 4.25001V2.83334C6.26424 2.45762 6.41333 2.09728 6.67871 1.8316C6.9441 1.56593 7.30403 1.41667 7.67934 1.41667H10.5095C10.8848 1.41667 11.2448 1.56593 11.5101 1.8316C11.7755 2.09728 11.9246 2.45762 11.9246 2.83334V4.25001" stroke="#D31B1B" stroke-width="2" stroke-linecap="round" stroke-linejoin="round"/>
<path id="Vector_3" d="M7.67969 7.79167V12.0417" stroke="#D31B1B" stroke-width="2" stroke-linecap="round" stroke-linejoin="round"/>
<path id="Vector_4" d="M10.5098 7.79167V12.0417" stroke="#D31B1B" stroke-width="2" stroke-linecap="round" stroke-linejoin="round"/>
</g>
</svg>
