<svg width="757" height="578" viewBox="0 0 757 578" fill="none" xmlns="http://www.w3.org/2000/svg">
<path d="M690.665 569.524C690.665 572.744 588.769 575.346 463.219 575.346C337.668 575.346 235.772 572.744 235.772 569.524C235.772 566.303 337.668 563.719 463.219 563.719C588.769 563.719 690.665 566.321 690.665 569.524Z" fill="#282F34"/>
<path d="M510.709 29.8942H297.001C290.348 29.8942 284.955 35.2872 284.955 41.9398V125.476C284.955 132.129 290.348 137.522 297.001 137.522H510.709C517.362 137.522 522.755 132.129 522.755 125.476V41.9398C522.755 35.2872 517.362 29.8942 510.709 29.8942Z" fill="#336699"/>
<path d="M284.955 118.598V157.446L306.626 132.5" fill="#336699"/>
<path d="M510.728 29.8942H296.946C295.365 29.8942 293.8 30.2059 292.34 30.8115C290.879 31.4171 289.552 32.3046 288.435 33.4234C287.318 34.5422 286.433 35.8702 285.829 37.3315C285.226 38.7928 284.917 40.3588 284.919 41.9398V157.446L302.241 137.522H510.728C512.309 137.522 513.874 137.21 515.334 136.604C516.795 135.999 518.121 135.111 519.239 133.993C520.356 132.874 521.241 131.546 521.845 130.084C522.448 128.623 522.757 127.057 522.755 125.476V41.9398C522.757 40.3588 522.448 38.7928 521.845 37.3315C521.241 35.8702 520.356 34.5422 519.239 33.4234C518.121 32.3046 516.795 31.4171 515.334 30.8115C513.874 30.2059 512.309 29.8942 510.728 29.8942Z" fill="#336699"/>
<path opacity="0.1" d="M510.728 29.8942H296.946C295.365 29.8942 293.8 30.2059 292.34 30.8115C290.879 31.4171 289.552 32.3046 288.435 33.4234C287.318 34.5422 286.433 35.8702 285.829 37.3315C285.226 38.7928 284.917 40.3588 284.919 41.9398V157.446L302.241 137.522H510.728C512.309 137.522 513.874 137.21 515.334 136.604C516.795 135.999 518.121 135.111 519.239 133.993C520.356 132.874 521.241 131.546 521.845 130.084C522.448 128.623 522.757 127.057 522.755 125.476V41.9398C522.757 40.3588 522.448 38.7928 521.845 37.3315C521.241 35.8702 520.356 34.5422 519.239 33.4234C518.121 32.3046 516.795 31.4171 515.334 30.8115C513.874 30.2059 512.309 29.8942 510.728 29.8942Z" fill="#336699"/>
<path d="M467.986 88.9392H314.432C313.294 88.9392 312.201 88.4868 311.396 87.6815C310.591 86.8762 310.138 85.7839 310.138 84.645C310.143 83.5093 310.598 82.4218 311.402 81.6204C312.207 80.819 313.297 80.3691 314.432 80.3691H467.986C469.122 80.3691 470.211 80.819 471.016 81.6204C471.821 82.4218 472.275 83.5093 472.28 84.645C472.28 85.209 472.169 85.7674 471.953 86.2884C471.737 86.8094 471.421 87.2828 471.022 87.6815C470.624 88.0803 470.15 88.3966 469.629 88.6124C469.108 88.8282 468.55 88.9392 467.986 88.9392Z" fill="white"/>
<path d="M467.986 108.663H314.432C313.869 108.663 313.31 108.552 312.789 108.336C312.268 108.121 311.795 107.804 311.396 107.406C310.997 107.007 310.681 106.533 310.465 106.012C310.249 105.491 310.138 104.933 310.138 104.369C310.143 103.233 310.598 102.146 311.402 101.344C312.207 100.543 313.297 100.093 314.432 100.093H467.986C469.122 100.093 470.211 100.543 471.016 101.344C471.821 102.146 472.275 103.233 472.28 104.369C472.28 104.933 472.169 105.491 471.953 106.012C471.737 106.533 471.421 107.007 471.022 107.406C470.624 107.804 470.15 108.121 469.629 108.336C469.108 108.552 468.55 108.663 467.986 108.663Z" fill="white"/>
<path d="M323.003 69.2151C331.524 69.2151 338.433 62.3069 338.433 53.7851C338.433 45.2634 331.524 38.3552 323.003 38.3552C314.481 38.3552 307.573 45.2634 307.573 53.7851C307.573 62.3069 314.481 69.2151 323.003 69.2151Z" fill="white"/>
<path d="M510.709 175.551H297.001C290.348 175.551 284.955 180.944 284.955 187.596V271.133C284.955 277.785 290.348 283.178 297.001 283.178H510.709C517.362 283.178 522.755 277.785 522.755 271.133V187.596C522.755 180.944 517.362 175.551 510.709 175.551Z" fill="#336699"/>
<path d="M284.955 264.236V303.102L306.626 278.138" fill="#336699"/>
<path d="M510.727 175.551H296.946C293.757 175.551 290.697 176.818 288.442 179.073C286.186 181.329 284.919 184.388 284.919 187.578V303.102L302.241 283.087H510.727C513.917 283.087 516.977 281.82 519.232 279.564C521.488 277.309 522.755 274.25 522.755 271.06V187.578C522.755 184.388 521.488 181.329 519.232 179.073C516.977 176.818 513.917 175.551 510.727 175.551Z" fill="#336699"/>
<path opacity="0.1" d="M510.727 175.551H296.946C293.757 175.551 290.697 176.818 288.442 179.073C286.186 181.329 284.919 184.388 284.919 187.578V303.102L302.241 283.087H510.727C513.917 283.087 516.977 281.82 519.232 279.564C521.488 277.309 522.755 274.25 522.755 271.06V187.578C522.755 184.388 521.488 181.329 519.232 179.073C516.977 176.818 513.917 175.551 510.727 175.551Z" fill="#336699"/>
<path d="M467.986 234.578H314.432C313.297 234.578 312.207 234.128 311.402 233.326C310.598 232.525 310.143 231.437 310.138 230.302C310.138 229.163 310.591 228.07 311.396 227.265C312.201 226.46 313.294 226.007 314.432 226.007H467.986C468.55 226.007 469.108 226.118 469.629 226.334C470.15 226.55 470.624 226.866 471.022 227.265C471.421 227.664 471.737 228.137 471.953 228.658C472.169 229.179 472.28 229.738 472.28 230.302C472.275 231.437 471.821 232.525 471.016 233.326C470.211 234.128 469.122 234.578 467.986 234.578Z" fill="white"/>
<path d="M467.986 254.302H314.432C313.297 254.302 312.207 253.852 311.402 253.05C310.598 252.249 310.143 251.161 310.138 250.026C310.138 248.887 310.591 247.795 311.396 246.989C312.201 246.184 313.294 245.731 314.432 245.731H467.986C468.55 245.731 469.108 245.843 469.629 246.058C470.15 246.274 470.624 246.59 471.022 246.989C471.421 247.388 471.737 247.861 471.953 248.382C472.169 248.903 472.28 249.462 472.28 250.026C472.275 251.161 471.821 252.249 471.016 253.05C470.211 253.852 469.122 254.302 467.986 254.302Z" fill="white"/>
<path d="M323.003 214.853C331.524 214.853 338.433 207.945 338.433 199.423C338.433 190.902 331.524 183.993 323.003 183.993C314.481 183.993 307.573 190.902 307.573 199.423C307.573 207.945 314.481 214.853 323.003 214.853Z" fill="white"/>
<path d="M119.811 388.804C119.648 388.804 118.92 377.395 118.956 376.668C119.375 368.243 125.161 352.194 134.313 349.756C135.841 349.391 137.429 349.352 138.973 349.642C140.517 349.932 141.982 350.544 143.273 351.439C144.564 352.333 145.653 353.49 146.466 354.834C147.28 356.177 147.802 357.677 147.997 359.236C149.052 365.823 144.758 372.847 140.409 377.432C135.278 382.745 119.811 388.804 119.811 388.804Z" fill="#282F34"/>
<path d="M107.875 344.843C107.711 344.843 108.712 333.453 108.858 332.725C110.568 324.464 118.72 309.471 128.109 308.452C129.675 308.324 131.25 308.527 132.732 309.048C134.215 309.568 135.571 310.396 136.712 311.475C137.853 312.555 138.755 313.863 139.357 315.314C139.96 316.765 140.25 318.326 140.209 319.897C140.209 326.575 134.95 332.871 129.965 336.71C124.087 341.222 107.875 344.843 107.875 344.843Z" fill="#282F34"/>
<path d="M104.855 292.967C104.691 292.967 105.71 281.577 105.856 280.849C107.548 272.588 115.699 257.595 125.107 256.576C126.672 256.448 128.246 256.651 129.728 257.172C131.209 257.693 132.564 258.52 133.704 259.6C134.844 260.68 135.744 261.988 136.344 263.439C136.944 264.89 137.232 266.451 137.189 268.021C137.189 274.699 131.948 280.977 126.944 284.834C121.067 289.347 104.873 292.967 104.855 292.967Z" fill="#282F34"/>
<path d="M99.6325 244.148C99.4687 244.148 100.488 232.74 100.633 232.03C102.325 223.751 110.477 208.776 119.884 207.739C121.45 207.613 123.025 207.819 124.507 208.342C125.988 208.865 127.343 209.694 128.482 210.775C129.622 211.857 130.521 213.166 131.122 214.618C131.722 216.07 132.01 217.632 131.966 219.202C131.966 225.862 126.726 232.157 121.722 235.997C115.845 240.509 99.6507 244.148 99.6325 244.148Z" fill="#282F34"/>
<path d="M84.057 204.973C83.9115 204.973 81.8735 193.746 81.819 193.019C81.2731 184.594 85.1852 167.981 93.9737 164.524C95.4494 163.985 97.0221 163.764 98.5891 163.874C100.156 163.985 101.682 164.424 103.068 165.164C104.454 165.904 105.668 166.928 106.631 168.169C107.594 169.41 108.285 170.84 108.658 172.366C110.477 178.79 107.02 186.25 103.199 191.272C98.7591 197.185 84.057 204.973 84.057 204.973Z" fill="#282F34"/>
<path d="M114.99 388.932C115.172 388.932 110.204 378.542 109.804 377.923C105.31 370.79 92.4088 359.618 83.2563 361.966C81.7474 362.397 80.3462 363.141 79.144 364.149C77.9419 365.158 76.9656 366.408 76.279 367.82C75.5923 369.231 75.2107 370.77 75.1588 372.339C75.107 373.907 75.3861 375.469 75.9781 376.922C78.2707 383.2 85.4398 387.221 91.4808 389.059C98.6135 391.224 114.99 388.932 114.99 388.932Z" fill="#282F34"/>
<path d="M105.437 338.966C105.619 338.966 99.1229 329.432 98.6498 328.886C93.1911 322.499 78.6346 313.419 69.9916 317.113C68.5614 317.766 67.285 318.712 66.2457 319.892C65.2065 321.071 64.4278 322.457 63.9607 323.958C63.4936 325.459 63.3485 327.042 63.5349 328.602C63.7213 330.163 64.235 331.667 65.0424 333.016C68.2449 338.857 75.9598 341.75 82.201 342.66C89.5156 343.715 105.437 338.966 105.437 338.966Z" fill="#282F34"/>
<path d="M102.689 290.02C102.853 290.02 96.3754 280.485 95.9023 279.939C90.4436 273.553 75.887 264.473 67.2259 268.185C65.7802 268.833 64.4887 269.78 63.4365 270.965C62.3844 272.149 61.5958 273.543 61.1228 275.055C60.6498 276.567 60.5032 278.162 60.6927 279.735C60.8822 281.308 61.4035 282.823 62.2221 284.179C65.4427 290.02 73.1395 292.913 79.3988 293.805C86.768 294.787 102.689 290.038 102.689 290.02Z" fill="#282F34"/>
<path d="M97.9765 245.113C98.1585 245.113 91.6626 235.578 91.1895 235.032C85.7308 228.646 71.1743 219.566 62.5313 223.26C61.1011 223.912 59.8246 224.859 58.7854 226.039C57.7462 227.218 56.9675 228.604 56.5004 230.105C56.0333 231.606 55.8881 233.188 56.0745 234.749C56.2609 236.31 56.7746 237.814 57.5821 239.163C60.7845 245.022 68.4995 247.897 74.7406 248.807C82.0553 249.862 97.9765 245.113 97.9765 245.113Z" fill="#282F34"/>
<path d="M84.1663 206.447C84.33 206.447 76.888 197.677 76.3057 197.167C70.1192 191.436 54.7621 183.994 46.5194 188.633C45.1661 189.439 43.9985 190.522 43.0932 191.811C42.1879 193.1 41.5653 194.566 41.2663 196.112C40.9674 197.658 40.9988 199.25 41.3584 200.784C41.7181 202.317 42.398 203.757 43.3534 205.01C47.1926 210.468 55.1624 212.506 61.549 212.706C68.8637 212.925 84.1663 206.465 84.1663 206.447Z" fill="#282F34"/>
<path d="M64.3146 174.495C64.4784 174.495 61.8582 163.323 61.6217 162.632C58.765 154.68 48.5754 141.015 39.1136 141.325C37.5454 141.42 36.0148 141.844 34.6214 142.57C33.2281 143.296 32.0032 144.307 31.0266 145.538C30.0499 146.769 29.3434 148.191 28.9529 149.713C28.5624 151.235 28.4968 152.822 28.7603 154.371C29.6701 160.994 35.802 166.453 41.2971 169.546C47.7566 173.185 64.2964 174.495 64.3146 174.495Z" fill="#282F34"/>
<path d="M135.715 447.758C135.715 447.758 133.768 443.3 130.711 435.494C127.654 427.688 123.432 416.425 118.956 402.742C116.718 395.9 114.444 388.44 112.224 380.489C111.096 376.486 110.077 372.464 108.967 368.152C108.494 366.041 108.039 363.913 107.566 361.765C107.093 359.618 106.765 357.344 106.365 355.106C104.929 345.927 103.999 336.675 103.581 327.394C103.126 317.95 102.944 308.397 102.708 298.845C102.471 289.292 102.234 279.776 101.47 270.459C100.804 261.336 99.4964 252.27 97.5581 243.33C95.6058 235.003 92.9143 226.868 89.5157 219.02C86.4805 211.959 83.0357 205.082 79.1987 198.423C75.6869 192.182 72.0842 186.705 68.8636 181.865C65.6429 177.025 62.6224 172.949 60.0932 169.619C55.0348 162.959 51.8688 159.393 51.8688 159.393C51.8688 159.393 55.1076 162.905 60.3298 169.437C62.9136 172.73 66.0068 176.715 69.4276 181.519C72.8484 186.323 76.4875 191.708 80.1449 197.895C84.1777 204.514 87.823 211.361 91.0623 218.402C94.6917 226.268 97.6204 234.439 99.8144 242.82C101.974 251.8 103.5 260.92 104.382 270.114C105.346 279.521 105.837 289.092 106.201 298.645C106.565 308.197 107.02 317.714 107.675 327.048C108.288 336.15 109.394 345.213 110.987 354.196C111.441 356.361 111.714 358.472 112.278 360.619C112.843 362.766 113.316 364.877 113.825 366.969C114.953 370.954 116.1 375.103 117.3 378.979C119.648 386.784 122.068 394.117 124.433 400.813C129.128 414.278 133.531 425.305 136.752 432.983C139.972 440.662 141.956 444.92 141.956 444.92C142.256 445.707 142.246 446.578 141.93 447.358C141.613 448.138 141.012 448.77 140.249 449.125C139.485 449.48 138.616 449.533 137.815 449.273C137.014 449.012 136.342 448.458 135.933 447.722L135.715 447.758Z" fill="#282F34"/>
<path d="M178.565 377.232C178.401 377.232 180.967 366.041 181.203 365.35C184.006 357.398 194.122 343.661 203.566 343.915C205.134 343.999 206.667 344.413 208.065 345.129C209.463 345.846 210.693 346.849 211.677 348.073C212.661 349.297 213.376 350.715 213.775 352.234C214.173 353.753 214.248 355.339 213.992 356.889C213.137 363.512 207.041 369.025 201.564 372.155C195.05 375.831 178.674 377.232 178.565 377.232Z" fill="#282F34"/>
<path d="M179.621 331.706C179.457 331.706 183.678 321.007 184.024 320.37C188.009 312.91 200.073 300.864 209.371 302.557C210.909 302.878 212.362 303.52 213.635 304.441C214.908 305.361 215.974 306.539 216.762 307.899C217.549 309.258 218.042 310.768 218.208 312.331C218.373 313.893 218.208 315.473 217.723 316.968C215.903 323.391 209.007 327.885 203.166 330.159C196.197 332.816 179.639 331.706 179.621 331.706Z" fill="#282F34"/>
<path d="M191.412 281.104C191.23 281.104 195.451 270.405 195.797 269.768C199.782 262.326 211.864 250.28 221.162 251.954C222.7 252.278 224.153 252.922 225.426 253.844C226.699 254.767 227.763 255.947 228.55 257.309C229.336 258.67 229.826 260.182 229.989 261.745C230.152 263.309 229.984 264.889 229.495 266.384C227.676 272.788 220.78 277.301 214.939 279.575C208.061 282.232 191.412 281.104 191.412 281.104Z" fill="#282F34"/>
<path d="M200.346 232.831C200.164 232.831 204.385 222.15 204.731 221.495C208.716 214.053 220.797 202.007 230.095 203.699C231.633 204.021 233.086 204.663 234.359 205.583C235.632 206.504 236.696 207.683 237.483 209.043C238.269 210.403 238.76 211.913 238.923 213.476C239.086 215.038 238.918 216.617 238.429 218.11C236.61 224.534 229.713 229.028 223.873 231.302C216.885 233.959 200.346 232.831 200.346 232.831Z" fill="#282F34"/>
<path d="M196.579 190.817C196.397 190.817 197.653 179.445 197.816 178.735C199.636 170.492 208.151 155.681 217.577 154.862C219.144 154.769 220.714 155.006 222.184 155.559C223.654 156.112 224.991 156.968 226.108 158.071C227.225 159.175 228.098 160.501 228.669 161.964C229.24 163.427 229.497 164.993 229.422 166.562C229.422 173.24 223.964 179.408 218.832 183.138C212.864 187.523 196.579 190.817 196.579 190.817Z" fill="#282F34"/>
<path d="M173.98 375.994C174.144 375.994 172.324 364.677 172.16 363.985C169.886 355.852 160.697 341.477 151.253 341.113C149.681 341.096 148.123 341.409 146.68 342.034C145.237 342.659 143.942 343.581 142.88 344.74C141.817 345.898 141.011 347.268 140.513 348.76C140.015 350.251 139.837 351.831 139.99 353.395C140.409 360.055 146.14 365.95 151.399 369.426C157.549 373.52 173.962 375.994 173.98 375.994Z" fill="#282F34"/>
<path d="M178.966 325.374C179.148 325.374 175.618 314.457 175.327 313.765C171.833 306.068 160.57 293.259 151.181 294.332C149.625 294.554 148.133 295.101 146.803 295.938C145.473 296.775 144.334 297.883 143.46 299.189C142.586 300.495 141.998 301.971 141.732 303.52C141.467 305.069 141.53 306.656 141.919 308.179C143.339 314.693 149.907 319.661 155.621 322.299C162.298 325.41 178.947 325.374 178.966 325.374Z" fill="#282F34"/>
<path d="M190.247 277.665C190.411 277.665 186.899 266.747 186.608 266.056C183.132 258.377 171.869 245.568 162.48 246.641C160.919 246.86 159.421 247.407 158.086 248.245C156.75 249.083 155.607 250.194 154.731 251.505C153.855 252.815 153.266 254.297 153.002 255.851C152.738 257.405 152.806 258.998 153.2 260.525C154.638 267.057 161.188 272.006 166.92 274.644C173.634 277.701 190.229 277.665 190.247 277.665Z" fill="#282F34"/>
<path d="M198.49 233.231C198.672 233.231 195.142 222.314 194.85 221.622C191.357 213.944 180.112 201.116 170.705 202.207C169.15 202.427 167.658 202.972 166.328 203.807C164.998 204.642 163.859 205.748 162.985 207.053C162.111 208.358 161.522 209.832 161.256 211.38C160.991 212.928 161.054 214.515 161.443 216.036C162.862 222.568 169.431 227.518 175.163 230.156C181.877 233.231 198.49 233.231 198.49 233.231Z" fill="#282F34"/>
<path d="M196.233 192.273C196.415 192.273 191.721 181.774 191.339 181.137C187.026 173.859 174.435 162.377 165.21 164.488C163.687 164.878 162.264 165.584 161.034 166.561C159.803 167.539 158.792 168.764 158.068 170.159C157.343 171.553 156.921 173.085 156.828 174.653C156.736 176.222 156.975 177.793 157.531 179.263C159.66 185.577 166.72 189.78 172.706 191.781C179.73 194.129 196.233 192.273 196.233 192.273Z" fill="#282F34"/>
<path d="M186.298 155.99C186.444 155.99 187.117 144.582 187.063 143.854C186.589 135.411 180.712 119.399 171.56 117.015C170.029 116.662 168.441 116.635 166.899 116.935C165.358 117.236 163.896 117.858 162.611 118.761C161.325 119.664 160.244 120.827 159.438 122.175C158.632 123.524 158.118 125.026 157.931 126.586C156.912 133.191 161.243 140.178 165.628 144.782C170.777 150.022 186.28 155.972 186.298 155.99Z" fill="#282F34"/>
<path d="M177.073 438.278C177.073 438.278 176.454 433.456 175.745 425.086C175.035 416.716 174.18 404.744 173.798 390.351C173.598 383.073 173.525 375.358 173.671 367.097C173.671 362.948 173.889 358.799 174.053 354.36C174.198 352.213 174.362 350.029 174.508 347.846C174.653 345.662 175.017 343.37 175.254 341.113C176.501 331.928 178.244 322.817 180.476 313.82C182.714 304.631 185.261 295.406 187.754 286.199C190.247 276.992 192.703 267.785 194.632 258.614C196.585 249.681 197.905 240.621 198.58 231.502C199.049 222.96 198.756 214.392 197.707 205.901C196.808 198.265 195.459 190.688 193.668 183.211C192.066 176.224 190.192 169.946 188.482 164.397C186.771 158.847 185.006 154.062 183.551 150.168C180.585 142.344 178.565 138.013 178.565 138.013C178.565 138.013 180.676 142.307 183.806 150.059C185.37 153.934 187.172 158.683 189.064 164.197C190.956 169.71 192.922 175.987 194.668 182.956C196.633 190.442 198.158 198.037 199.235 205.701C200.488 214.278 200.975 222.949 200.691 231.612C200.205 240.863 199.068 250.068 197.289 259.16C195.469 268.44 193.285 277.756 190.975 287.036C188.664 296.316 186.335 305.559 184.315 314.693C182.309 323.592 180.791 332.594 179.766 341.659C179.584 343.861 179.257 345.953 179.184 348.173C179.111 350.393 178.966 352.558 178.856 354.705C178.856 358.854 178.729 363.148 178.856 367.206C178.856 375.376 179.129 383.091 179.493 390.205C180.166 404.452 181.313 416.298 182.168 424.541C183.023 432.783 183.751 437.478 183.751 437.478C183.814 437.909 183.792 438.348 183.685 438.771C183.579 439.194 183.39 439.591 183.13 439.941C182.87 440.291 182.543 440.586 182.169 440.81C181.795 441.033 181.38 441.181 180.949 441.244C180.518 441.307 180.078 441.285 179.655 441.179C179.233 441.072 178.835 440.883 178.485 440.623C178.135 440.363 177.84 440.036 177.617 439.662C177.393 439.288 177.246 438.873 177.182 438.442V438.351L177.073 438.278Z" fill="#282F34"/>
<path d="M198.18 558.588H121.14L99.4688 432.419H219.851L198.18 558.588Z" fill="#282F34"/>
<path d="M333.884 570.525C426.407 570.525 501.411 495.52 501.411 402.997C501.411 310.474 426.407 235.469 333.884 235.469C241.361 235.469 166.356 310.474 166.356 402.997C166.356 495.52 241.361 570.525 333.884 570.525Z" fill="#336699"/>
<path d="M333.884 571.361C300.584 571.361 268.033 561.487 240.345 542.987C212.658 524.487 191.078 498.192 178.335 467.427C165.592 436.663 162.258 402.81 168.754 370.15C175.25 337.491 191.286 307.491 214.832 283.945C238.378 260.399 268.378 244.364 301.037 237.867C333.697 231.371 367.549 234.705 398.314 247.448C429.078 260.191 455.373 281.771 473.874 309.458C492.374 337.146 502.248 369.697 502.248 402.997C502.195 447.634 484.44 490.427 452.877 521.99C421.314 553.553 378.52 571.308 333.884 571.361ZM333.884 236.288C300.912 236.288 268.68 246.065 241.265 264.383C213.85 282.702 192.482 308.738 179.865 339.2C167.247 369.662 163.945 403.182 170.378 435.52C176.81 467.858 192.688 497.563 216.003 520.878C239.317 544.192 269.022 560.07 301.36 566.502C333.699 572.935 367.218 569.633 397.68 557.016C428.142 544.398 454.179 523.03 472.497 495.615C490.815 468.2 500.592 435.969 500.592 402.997C500.549 358.796 482.971 316.418 451.717 285.164C420.462 253.909 378.084 236.331 333.884 236.288Z" fill="#282F34"/>
<path d="M289.504 513.172C275.332 507.943 262.343 499.945 251.293 489.645C240.146 478.93 231.509 465.881 226.001 451.434C219.755 435.235 216.661 417.992 216.885 400.631C216.766 385.809 219.381 371.091 224.6 357.217C229.319 344.49 236.386 332.762 245.434 322.645C263.315 303.038 286.438 288.964 312.067 282.086C324.642 278.713 337.604 277 350.624 276.992C361.426 276.952 372.193 278.235 382.684 280.813C392.822 283.322 402.526 287.339 411.47 292.731C420.309 298.052 428.23 304.768 434.924 312.619C441.929 321.054 447.27 330.742 450.663 341.168C454.593 353.037 456.53 365.476 456.395 377.978C456.259 402.03 447.645 425.264 432.067 443.591C425.334 451.281 417.334 457.762 408.413 462.751C400.736 467.204 392.049 469.622 383.176 469.775C377.085 469.849 371.137 467.932 366.235 464.316C363.761 462.498 361.746 460.126 360.353 457.39C358.959 454.654 358.226 451.629 358.211 448.559C347.827 463.188 333.78 470.503 316.07 470.503C301.647 470.503 290.123 465.572 281.498 455.71C272.873 445.848 268.579 433.717 268.616 419.318C268.655 408.364 270.562 397.497 274.256 387.185C277.87 376.758 283.049 366.942 289.613 358.072C296.129 349.325 304.451 342.083 314.014 336.837C323.55 331.45 334.321 328.629 345.274 328.649C352.884 328.572 360.391 330.405 367.109 333.981C373.655 337.453 378.963 342.869 382.302 349.483L383.721 344.862C384.37 342.92 385.469 341.16 386.927 339.723C388.386 338.287 390.163 337.216 392.114 336.597C394.065 335.978 396.135 335.828 398.155 336.161C400.175 336.494 402.087 337.299 403.737 338.511C404.789 339.37 405.625 340.466 406.175 341.708C406.725 342.951 406.974 344.305 406.903 345.662C406.904 346.962 406.689 348.254 406.266 349.483L383.685 424.541C381.138 433.129 379.864 439.018 379.864 442.209C379.864 447.619 382.624 450.318 388.143 450.306C395.349 450.306 402.427 446.994 409.377 440.371C416.867 432.898 422.646 423.891 426.318 413.969C430.641 403.115 432.852 391.535 432.832 379.852C432.938 369.559 431.433 359.312 428.374 349.483C425.836 341.008 421.786 333.062 416.419 326.029C411.323 319.621 405.169 314.132 398.223 309.798C391.288 305.431 383.721 302.16 375.788 300.1C367.661 297.982 359.296 296.912 350.896 296.916C340.217 296.929 329.592 298.43 319.327 301.374C308.788 304.39 298.742 308.919 289.504 314.821C280.188 320.704 271.752 327.877 264.449 336.128C256.916 344.815 251.045 354.813 247.126 365.623C242.769 377.408 240.587 389.886 240.685 402.451C240.449 417.335 243.151 432.119 248.637 445.957C253.319 457.957 260.754 468.69 270.344 477.29C279.589 485.335 290.269 491.564 301.823 495.649C314.002 499.961 326.841 502.116 339.761 502.018C353.572 502.042 367.305 499.95 380.483 495.813C381.812 495.364 383.21 495.148 384.613 495.176C385.947 495.122 387.277 495.357 388.512 495.866C389.746 496.375 390.856 497.145 391.764 498.124C393.509 499.937 394.482 502.358 394.475 504.874C394.648 506.899 394.081 508.918 392.88 510.557C391.679 512.196 389.925 513.345 387.943 513.79C371.498 518.822 354.41 521.445 337.213 521.578C320.931 521.7 304.764 518.851 289.504 513.172ZM347.003 440.971C353.863 436.021 358.963 429.008 361.559 420.956L376.116 369.753L375.151 367.679C374.226 365.991 373.108 364.416 371.821 362.985C370.081 360.986 368.19 359.124 366.163 357.417C363.559 355.32 360.601 353.705 357.429 352.649C349.191 349.733 340.154 350.045 332.137 353.523C327.778 355.401 323.772 358.01 320.291 361.238C316.659 364.621 313.429 368.413 310.666 372.537C307.781 376.807 305.342 381.362 303.388 386.129C301.429 390.881 299.913 395.802 298.857 400.832C297.815 405.614 297.278 410.493 297.256 415.388C297.236 418.527 297.425 421.663 297.82 424.777C298.158 427.535 298.767 430.254 299.639 432.892C300.409 435.282 301.505 437.553 302.896 439.643C304.18 441.577 305.794 443.271 307.664 444.647C309.653 446.101 311.892 447.18 314.269 447.831C317.064 448.609 319.956 448.982 322.857 448.941C331.566 449.035 340.06 446.231 347.003 440.971Z" fill="#282F34"/>
<path d="M561.712 262.108C561.712 262.108 556.253 272.261 555.452 273.68C554.652 275.099 551.722 282.778 552.595 284.597C553.469 286.417 554.306 287.454 556.034 287.745C557.763 288.036 559.182 291.184 562.039 291.748C563.838 292.105 565.664 292.3 567.498 292.331C567.947 292.661 568.466 292.884 569.015 292.981C569.564 293.079 570.128 293.05 570.664 292.895C572.374 292.331 573.812 291.475 574.958 286.599C575.658 284.184 575.85 281.65 575.522 279.157L575.013 269.313L561.712 262.108Z" fill="white"/>
<path d="M569.645 293.95C568.78 293.938 567.936 293.686 567.207 293.222C565.41 293.174 563.62 292.973 561.857 292.622C560.222 292.176 558.758 291.251 557.654 289.965C557.163 289.378 556.539 288.917 555.835 288.619C554.899 288.41 554.032 287.966 553.316 287.329C552.6 286.693 552.058 285.884 551.74 284.98C550.558 282.632 553.997 274.281 554.634 273.225C555.471 271.824 560.82 261.78 560.875 261.671C560.994 261.461 561.19 261.305 561.421 261.234C561.642 261.145 561.89 261.145 562.112 261.234L575.395 268.422C575.531 268.5 575.645 268.61 575.728 268.744C575.811 268.877 575.859 269.029 575.868 269.186L576.377 279.011C576.71 281.591 576.506 284.212 575.777 286.708C574.649 291.566 573.175 292.913 570.882 293.677C570.487 293.833 570.069 293.925 569.645 293.95ZM562.094 263.345C560.784 265.783 556.963 272.934 556.235 274.153C555.234 275.809 552.832 283.033 553.396 284.161C554.306 285.98 554.998 286.635 556.18 286.836C557.257 287.154 558.214 287.788 558.928 288.655C559.787 289.691 560.933 290.451 562.221 290.839C563.955 291.174 565.714 291.363 567.48 291.403C567.691 291.403 567.896 291.473 568.062 291.603C568.388 291.84 568.764 292 569.161 292.073C569.558 292.145 569.966 292.128 570.355 292.021C571.61 291.603 572.92 291.166 573.994 286.381C574.654 284.089 574.846 281.688 574.558 279.321L574.067 269.859L562.094 263.345Z" fill="#282F34"/>
<path d="M593.263 535.498C593.263 535.498 585.493 548.144 585.493 551.201C585.493 554.258 596.193 559.88 600.778 561.918C605.363 563.956 613.515 565.557 620.138 566.503C626.761 567.449 640.517 570.142 636.514 564.975C632.511 559.807 607.911 546.197 606.892 544.577C605.629 543.065 604.215 541.687 602.67 540.465L593.263 535.498Z" fill="white"/>
<path d="M633.203 568.941C629.32 568.784 625.452 568.352 621.63 567.65L619.993 567.395C610.749 565.976 604.162 564.411 600.414 562.737C599.759 562.446 584.584 555.659 584.584 551.201C584.584 547.98 591.68 536.335 592.481 535.007C592.605 534.813 592.796 534.672 593.018 534.612C593.24 534.551 593.476 534.575 593.682 534.679L603.089 539.665C604.777 540.956 606.31 542.44 607.656 544.086C608.093 544.596 612.096 547.107 615.971 549.545C624.232 554.694 634.495 561.117 637.151 564.429C638.115 565.63 638.352 566.667 637.843 567.522C637.333 568.377 635.732 568.941 633.203 568.941ZM593.536 536.699C590.588 541.575 586.349 549.272 586.349 551.255C586.349 553.239 594.136 558.042 601.087 561.136C604.726 562.737 611.131 564.247 620.229 565.648L621.849 565.903C625.197 566.43 635.386 568.05 636.223 566.631C636.223 566.631 636.223 566.267 635.677 565.593C633.221 562.518 622.667 555.913 614.952 551.037C608.748 547.161 606.528 545.742 606.073 545.069C604.866 543.628 603.512 542.317 602.033 541.157L593.536 536.699Z" fill="#282F34"/>
<path d="M605.436 555.422L608.165 559.498C611.101 563.951 615.088 567.614 619.774 570.161C627.053 574.091 638.261 578.585 648.05 575.892C664.099 571.471 623.704 547.107 623.704 547.107C623.704 547.107 609.312 557.114 605.436 555.422Z" fill="white"/>
<path d="M641.682 577.621C633.603 577.621 625.306 574.236 619.337 570.961C614.527 568.351 610.429 564.602 607.401 560.044L604.672 555.95C604.558 555.794 604.497 555.606 604.497 555.413C604.497 555.22 604.558 555.032 604.672 554.876C604.8 554.724 604.973 554.618 605.167 554.572C605.36 554.526 605.563 554.543 605.745 554.621C608.093 555.64 617.318 550.418 623.122 546.397C623.267 546.298 623.438 546.246 623.613 546.246C623.789 546.246 623.96 546.298 624.105 546.397C627.143 548.217 653.782 564.593 652.636 572.89C652.381 574.71 650.816 576.092 648.232 576.82C646.095 577.379 643.891 577.649 641.682 577.621ZM607.219 556.441L608.911 559.007C611.773 563.325 615.645 566.879 620.193 569.36C627.617 573.363 638.388 577.603 647.814 575.019C650.652 574.218 650.834 572.981 650.889 572.581C651.708 566.631 632.02 553.257 623.723 548.198C620.83 550.127 612.132 555.859 607.219 556.441Z" fill="#282F34"/>
<path d="M610.057 557.351C614.479 564.039 621.177 568.894 628.908 571.016C642.1 574.782 645.885 573.836 648.705 570.07" fill="white"/>
<path d="M641.5 574.327C637.135 574.081 632.822 573.261 628.672 571.889C620.696 569.735 613.792 564.722 609.275 557.806C609.214 557.703 609.173 557.59 609.156 557.472C609.14 557.354 609.147 557.233 609.177 557.118C609.208 557.002 609.261 556.894 609.334 556.8C609.407 556.706 609.499 556.627 609.603 556.568C609.813 556.448 610.063 556.415 610.297 556.476C610.532 556.537 610.733 556.688 610.858 556.896C615.184 563.354 621.676 568.053 629.163 570.142C642.027 573.782 645.539 572.872 647.977 569.524C648.125 569.335 648.34 569.21 648.578 569.176C648.815 569.142 649.056 569.202 649.251 569.342C649.444 569.487 649.572 569.702 649.606 569.941C649.64 570.18 649.578 570.422 649.433 570.616C648.542 571.865 647.343 572.863 645.954 573.513C644.564 574.163 643.03 574.444 641.5 574.327Z" fill="#282F34"/>
<path d="M586.494 548.872C586.494 548.872 601.051 559.298 608.165 559.498L586.494 548.872Z" fill="white"/>
<path d="M608.093 560.408C600.814 560.208 586.531 550.036 585.93 549.618C585.738 549.473 585.61 549.259 585.573 549.021C585.535 548.784 585.592 548.541 585.73 548.344C585.797 548.246 585.883 548.163 585.983 548.099C586.083 548.035 586.195 547.991 586.312 547.971C586.429 547.95 586.549 547.954 586.664 547.98C586.78 548.007 586.889 548.056 586.986 548.126C587.131 548.235 601.415 558.406 608.147 558.588C608.39 558.598 608.62 558.702 608.786 558.879C608.953 559.056 609.044 559.291 609.039 559.534C609.034 559.654 609.006 559.771 608.956 559.88C608.906 559.988 608.835 560.086 608.747 560.167C608.659 560.248 608.556 560.311 608.444 560.353C608.331 560.394 608.212 560.413 608.093 560.408Z" fill="#282F34"/>
<path d="M554.889 265.601C554.889 265.601 567.807 287.018 570.573 291.985C573.339 296.952 608.202 336.819 622.031 371.136C635.859 405.453 649.16 436.422 648.596 446.394C648.032 456.365 602.634 540.465 602.634 540.465L593.227 535.498C593.227 535.498 607.601 456.347 605.964 448.049C604.326 439.752 553.506 357.289 553.506 357.289C553.506 357.289 529.706 340.695 519.753 321.316" fill="#282F34"/>
<path d="M556.726 319.115C556.726 319.115 549.539 334.599 549.539 336.819C549.539 339.039 589.933 458.021 601.56 485.132C608.92 502.499 615.382 520.233 620.92 538.264C620.92 538.264 625.36 543.722 622.03 549.327C618.701 554.931 605.436 558.734 602.67 553.748C599.904 548.762 572.775 522.815 561.166 496.759C549.557 470.703 532.944 426.469 523.519 409.875C511.103 388.627 500.019 366.628 490.33 344.006C478.139 315.239 465.602 284.052 465.602 284.052C482.033 285.425 498.574 283.57 514.294 278.593C539.768 270.296 550.685 254.411 550.685 254.411C550.685 254.411 557.163 270.969 558.819 274.171" fill="#282F34"/>
<path d="M560.529 365.841C560.403 365.839 560.281 365.8 560.177 365.729C560.074 365.658 559.993 365.558 559.947 365.441L547.21 332.325C547.166 332.202 547.16 332.069 547.192 331.942C547.225 331.816 547.294 331.702 547.392 331.615L561.657 319.388C561.778 319.275 561.937 319.213 562.103 319.213C562.268 319.213 562.427 319.275 562.549 319.388C562.66 319.506 562.722 319.662 562.722 319.824C562.722 319.987 562.66 320.143 562.549 320.261L548.611 332.216L561.184 364.968C561.244 365.122 561.242 365.295 561.178 365.448C561.113 365.6 560.991 365.722 560.838 365.787L560.529 365.841Z" fill="white"/>
<path d="M547.774 332.707C547.619 332.709 547.468 332.65 547.355 332.543C547.292 332.485 547.242 332.415 547.208 332.337C547.173 332.258 547.155 332.174 547.155 332.088C547.155 331.997 547.155 322.008 542.679 315.712C541.569 314.093 540.678 312.819 539.932 311.782C537.603 308.47 536.893 307.469 536.474 305.814C536.186 303.877 536.186 301.909 536.474 299.973C536.505 299.812 536.595 299.669 536.727 299.571C536.858 299.474 537.021 299.429 537.184 299.445C537.266 299.456 537.344 299.484 537.415 299.525C537.486 299.567 537.548 299.623 537.597 299.689C537.646 299.755 537.682 299.83 537.701 299.91C537.721 299.99 537.725 300.073 537.712 300.155C537.455 301.935 537.455 303.743 537.712 305.523C538.076 306.942 538.694 307.815 540.987 311.072C541.715 312.109 542.625 313.383 543.735 315.002C547.774 320.807 548.338 329.14 548.429 331.524L574.285 330.523C574.45 330.523 574.609 330.584 574.73 330.696C574.851 330.807 574.926 330.96 574.94 331.124C574.945 331.206 574.933 331.288 574.905 331.365C574.877 331.442 574.834 331.512 574.778 331.572C574.721 331.632 574.653 331.679 574.578 331.712C574.503 331.744 574.422 331.761 574.34 331.761L547.847 332.78L547.774 332.707Z" fill="white"/>
<path d="M634.422 450.506C622.904 450.506 608.274 443.046 607.619 442.718C607.474 442.641 607.366 442.509 607.319 442.352C607.271 442.195 607.287 442.026 607.365 441.881C607.401 441.808 607.452 441.743 607.514 441.689C607.576 441.636 607.648 441.595 607.726 441.57C607.804 441.544 607.886 441.535 607.968 441.541C608.049 441.548 608.129 441.57 608.202 441.608C608.365 441.699 624.996 450.178 636.387 449.177C636.469 449.17 636.553 449.179 636.632 449.205C636.711 449.23 636.784 449.271 636.847 449.326C636.91 449.38 636.961 449.447 636.998 449.521C637.034 449.596 637.055 449.677 637.06 449.76C637.067 449.841 637.059 449.923 637.034 450.001C637.01 450.079 636.97 450.151 636.918 450.214C636.866 450.276 636.801 450.328 636.729 450.366C636.656 450.403 636.577 450.426 636.496 450.433C635.823 450.488 635.131 450.506 634.422 450.506Z" fill="white"/>
<path d="M632.875 460.113H632.73C622.522 457.547 611.059 448.158 610.567 447.758C610.456 447.64 610.394 447.484 610.394 447.322C610.394 447.159 610.456 447.003 610.567 446.885C610.619 446.821 610.682 446.768 610.754 446.729C610.825 446.69 610.904 446.666 610.985 446.658C611.066 446.649 611.148 446.657 611.227 446.68C611.305 446.704 611.378 446.742 611.441 446.794C611.55 446.885 623.177 456.419 633.112 458.894C633.191 458.915 633.265 458.952 633.33 459.002C633.395 459.051 633.449 459.114 633.49 459.185C633.53 459.256 633.557 459.334 633.567 459.416C633.577 459.497 633.571 459.579 633.549 459.658C633.514 459.805 633.425 459.933 633.301 460.017C633.176 460.101 633.024 460.135 632.875 460.113Z" fill="white"/>
<path d="M547.264 323.027C547.166 323.027 547.068 323.004 546.98 322.96C546.891 322.915 546.814 322.851 546.755 322.772C546.707 322.704 546.673 322.628 546.656 322.547C546.638 322.466 546.637 322.382 546.652 322.301C546.667 322.219 546.699 322.142 546.744 322.073C546.79 322.003 546.85 321.944 546.919 321.899C549.375 320.188 553.269 316.895 553.269 315.275C553.269 314.202 551.941 312.928 550.521 311.636C548.951 310.324 547.652 308.717 546.7 306.905C545.772 304.74 542.443 296.243 543.061 294.168C543.086 294.09 543.126 294.018 543.179 293.956C543.232 293.894 543.296 293.842 543.369 293.805C543.442 293.768 543.521 293.745 543.603 293.739C543.684 293.733 543.766 293.743 543.844 293.768C544.002 293.822 544.133 293.936 544.208 294.086C544.283 294.236 544.296 294.409 544.244 294.569C543.862 295.679 545.845 301.847 547.792 306.359C548.682 308.004 549.88 309.462 551.322 310.654C553.014 312.273 554.47 313.656 554.47 315.257C554.47 318.059 548.283 322.408 547.574 322.899C547.483 322.968 547.377 323.012 547.264 323.027Z" fill="white"/>
<path d="M486.636 326.593C486.505 326.598 486.375 326.562 486.266 326.488C486.157 326.415 486.074 326.309 486.029 326.185C485.985 326.061 485.981 325.926 486.018 325.8C486.055 325.674 486.131 325.563 486.236 325.483L491.331 321.407C496.225 317.513 499.246 307.56 499.282 307.451C499.333 307.293 499.443 307.161 499.589 307.083C499.735 307.005 499.905 306.987 500.065 307.033C500.223 307.083 500.355 307.193 500.433 307.339C500.511 307.485 500.529 307.656 500.483 307.815C500.356 308.234 497.299 318.241 492.113 322.372L487.018 326.448C486.912 326.539 486.777 326.591 486.636 326.593Z" fill="white"/>
<path d="M607.601 556.223C607.51 556.219 607.421 556.197 607.339 556.156C607.257 556.115 607.185 556.057 607.128 555.986C600.614 548 594.731 539.52 589.533 530.621C582.491 518.03 562.239 483.585 562.021 483.313C560.145 479.168 558.753 474.821 557.872 470.357C557.745 469.666 557.654 469.029 557.563 468.538C556.89 463.952 556.599 462.06 550.503 458.13C544.408 454.199 544.026 447.358 543.516 440.025C543.407 438.296 543.279 436.513 543.079 434.748C542.26 427.47 522.937 394.718 508.835 370.918C505.633 365.459 502.721 360.583 500.356 356.525C487.728 334.799 478.994 306.232 478.903 305.941C478.857 305.782 478.876 305.611 478.954 305.465C479.032 305.319 479.164 305.209 479.322 305.159C479.399 305.134 479.481 305.125 479.562 305.133C479.643 305.14 479.722 305.164 479.794 305.204C479.865 305.243 479.928 305.296 479.978 305.36C480.028 305.424 480.065 305.498 480.086 305.577C480.177 305.868 488.874 334.308 501.429 355.888C503.795 359.946 506.706 364.877 509.909 370.281C524.083 394.208 543.48 426.997 544.317 434.603C544.517 436.422 544.644 438.242 544.772 439.952C545.263 447.23 545.681 453.563 551.176 457.093C557.745 461.314 558.073 463.516 558.8 468.337C558.8 468.938 558.982 469.557 559.092 470.248C559.956 474.579 561.311 478.797 563.131 482.821C563.295 483.131 583.565 517.575 590.625 530.13C595.79 538.956 601.63 547.369 608.092 555.295C608.144 555.358 608.183 555.431 608.206 555.509C608.23 555.587 608.237 555.669 608.229 555.75C608.22 555.831 608.196 555.91 608.157 555.982C608.118 556.054 608.065 556.117 608.002 556.168C607.878 556.229 607.737 556.248 607.601 556.223Z" fill="white"/>
<path d="M465.602 284.052C465.602 284.052 466.767 296.934 471.861 301.01C476.956 305.086 492.241 308.652 513.129 304.649C534.018 300.646 556.944 282.814 558.982 276.628C561.02 270.441 550.649 254.429 550.649 254.429C550.649 254.429 538.603 271.533 504.977 277.137C471.352 282.742 465.602 284.052 465.602 284.052Z" fill="white"/>
<path d="M495.425 307.288C483.106 307.288 474.664 304.431 471.279 301.72C465.948 297.444 464.747 284.688 464.692 284.143C464.673 283.926 464.732 283.709 464.859 283.532C464.986 283.355 465.172 283.23 465.384 283.178C465.62 283.178 471.552 281.704 504.832 276.155C537.584 270.696 549.775 253.992 549.903 253.829C549.988 253.711 550.101 253.615 550.23 253.548C550.36 253.482 550.503 253.447 550.649 253.446C550.798 253.45 550.944 253.49 551.074 253.563C551.204 253.636 551.314 253.739 551.395 253.865C552.486 255.539 561.948 270.496 559.838 276.846C557.599 283.542 534.145 301.392 513.293 305.468C507.409 306.647 501.425 307.256 495.425 307.288ZM466.603 284.779C466.949 287.582 468.422 297.08 472.425 300.3C476.974 303.939 491.549 307.87 512.947 303.685C533.981 299.573 556.308 281.723 558.127 276.264C559.565 271.933 553.687 260.998 550.558 255.939C547.319 259.815 534.327 273.098 505.069 277.956C478.102 282.469 469.041 284.179 466.603 284.779Z" fill="#282F34"/>
<path d="M599.904 159.175C591.589 153.716 526.849 103.277 520.753 101.058C514.658 98.8377 502.557 101.058 502.557 101.058C502.557 101.058 465.038 105.643 457.177 108.809C456.431 109.1 439.528 118.817 438.982 119.326C432.886 124.312 406.229 136.576 399.06 152.078C390.927 169.619 462.4 275.227 465.729 284.07C469.059 292.913 486.509 295.096 502.557 292.876C518.606 290.657 532.69 287.418 544.317 274.117C546.425 271.467 548.191 268.564 549.575 265.474C551.237 262.021 551.661 258.102 550.776 254.374C546.627 237.089 536.038 187.251 529.05 154.298C540.696 161.813 564.914 177.079 578.998 182.465C597.812 189.743 612.205 184.685 612.205 178.589C612.205 172.494 608.202 164.706 599.904 159.175Z" fill="white"/>
<path d="M577.433 169.928C566.339 168.834 555.595 165.444 545.881 159.975C545.881 159.975 560.274 153.334 560.82 150.004C561.366 146.674 540.896 149.458 543.662 148.348C546.427 147.238 550.303 144.472 543.662 144.472C538.367 144.124 533.151 143.009 528.177 141.161L528.923 154.244C535.255 158.338 545.299 164.688 555.38 170.511C564.861 175.495 574.624 179.924 584.62 183.775C584.62 183.775 596.793 172.148 577.433 169.928Z" fill="#336699"/>
<g style="mix-blend-mode:multiply">
<path d="M502.43 292.858L504.486 292.567C508.926 290.42 516.441 289.074 523.756 287.254C534.819 284.488 522.646 284.488 504.377 275.081C486.109 265.674 478.903 251.845 462.309 231.921C445.714 211.997 439.073 202.025 442.403 199.824C445.732 197.622 435.761 197.604 431.886 195.384C428.01 193.164 437.344 193.182 445.168 185.431C452.993 177.68 430.212 187.087 428.01 186.541C425.808 185.995 430.212 178.79 430.212 178.79L414.163 195.384L452.902 261.798L455.121 263.454L457.669 267.093L464.947 282.742C465.238 283.287 465.438 283.742 465.566 284.052C468.914 292.913 486.382 295.096 502.43 292.858Z" fill="#336699"/>
</g>
<path d="M429.065 138.122C441.311 136.303 475.446 155.772 475.446 155.772C456.686 143.035 440.274 131.099 429.047 125.713L408.358 140.269L406.939 141.598C409.341 141.124 418.548 139.614 429.065 138.122Z" fill="#336699"/>
<path opacity="0.5" d="M577.433 169.928C566.339 168.834 555.595 165.444 545.881 159.975C545.881 159.975 560.274 153.334 560.82 150.004C561.366 146.674 540.896 149.458 543.662 148.348C546.427 147.238 550.303 144.472 543.662 144.472C538.367 144.124 533.151 143.009 528.177 141.161L528.923 154.244C535.255 158.338 545.299 164.688 555.38 170.511C564.861 175.495 574.624 179.924 584.62 183.775C584.62 183.775 596.793 172.148 577.433 169.928Z" fill="white"/>
<path opacity="0.5" d="M502.43 292.858L504.486 292.567C508.926 290.42 516.441 289.074 523.756 287.254C534.819 284.488 522.646 284.488 504.377 275.081C486.109 265.674 478.903 251.845 462.309 231.921C445.714 211.997 439.073 202.025 442.403 199.824C445.732 197.622 435.761 197.604 431.886 195.384C428.01 193.164 437.344 193.182 445.168 185.431C452.993 177.68 430.212 187.087 428.01 186.541C425.808 185.995 430.212 178.79 430.212 178.79L414.163 195.384L452.902 261.798L455.121 263.454L457.669 267.093L464.947 282.742C465.238 283.287 465.438 283.742 465.566 284.052C468.914 292.913 486.382 295.096 502.43 292.858Z" fill="white"/>
<path opacity="0.5" d="M429.065 138.122C441.311 136.303 475.446 155.772 475.446 155.772C456.686 143.035 440.274 131.099 429.047 125.713L408.358 140.269L406.939 141.598C409.341 141.124 418.548 139.614 429.065 138.122Z" fill="white"/>
<path d="M490.785 294.587C478.521 294.587 467.476 291.657 464.747 284.379C463.946 282.232 458.56 273.462 451.737 262.435C422.751 215.417 392.31 164.178 398.114 151.678C403.573 139.887 419.713 130.152 430.393 123.711C433.115 122.165 435.745 120.464 438.272 118.616C438.927 118.089 455.867 108.336 456.777 107.972C464.674 104.788 500.847 100.348 502.394 100.166C502.849 100.075 514.821 97.9279 521.063 100.166C525.102 101.64 552.778 122.583 575.013 139.414C587.058 148.512 597.448 156.409 600.396 158.374C609.675 164.561 612.987 172.821 612.987 178.498C612.921 179.552 612.593 180.573 612.034 181.468C611.475 182.364 610.702 183.107 609.785 183.63C604.417 187.269 592.681 188.633 578.543 183.229C568.662 179.445 551.995 170.11 530.27 156.154C537.548 190.817 547.537 237.507 551.522 254.101C552.46 258.036 552.017 262.173 550.267 265.82C548.845 268.995 547.009 271.968 544.808 274.663C532.653 288.546 517.86 291.603 502.503 293.713C498.622 294.273 494.706 294.565 490.785 294.587ZM513.348 100.985C509.768 101.039 506.198 101.361 502.667 101.949C502.23 101.949 465.129 106.553 457.45 109.646C456.45 110.101 440.237 119.435 439.418 120.036C436.828 121.939 434.124 123.683 431.321 125.258C420.841 131.59 405.01 141.161 399.77 152.551C393.875 165.288 432.522 227.9 453.284 261.58C460.689 273.589 465.584 281.595 466.457 283.833C469.678 292.422 487.291 294.114 502.303 292.039C517.314 289.965 531.762 286.999 543.498 273.589C545.561 271.005 547.285 268.168 548.629 265.146C550.193 261.885 550.591 258.185 549.757 254.666C545.681 237.707 535.419 189.398 528.031 154.589C527.996 154.411 528.013 154.227 528.081 154.059C528.149 153.891 528.264 153.746 528.414 153.643C528.562 153.545 528.736 153.493 528.914 153.493C529.092 153.493 529.266 153.545 529.414 153.643C551.941 168.2 569.154 177.898 579.198 181.719C592.626 186.868 603.944 185.649 608.747 182.338C609.409 181.965 609.973 181.44 610.393 180.808C610.814 180.176 611.079 179.453 611.168 178.699C611.168 173.495 608.074 165.871 599.395 160.084C596.393 158.083 585.985 150.204 573.921 141.07C552.941 125.203 524.229 103.459 520.444 102.077C518.154 101.328 515.757 100.959 513.348 100.985Z" fill="#282F34"/>
<path d="M407.831 140.742C407.831 140.742 401.189 148.021 398.606 151.387C384.74 169.2 340.616 226.28 340.125 230.884C339.633 235.487 341.726 238.581 352.516 242.729C363.306 246.878 435.488 174.55 435.488 174.55" fill="white"/>
<g style="mix-blend-mode:multiply" opacity="0.8">
<path d="M407.94 140.961L407.012 141.561C405.665 143.053 402.754 146.31 400.498 148.985L366.981 192.946C366.981 192.946 365.944 194.11 364.307 196.039C351.733 212.797 340.78 227.918 340.106 230.611C340.106 230.702 340.106 230.793 340.106 230.866C339.67 235.214 341.78 238.526 352.516 242.656C354.426 243.384 358.211 241.747 363.178 238.562C360.655 238.055 358.244 237.093 356.064 235.724C349.968 231.848 354.954 227.972 354.954 227.972C354.954 227.972 362.869 231.139 370.675 233.267C372.294 232.048 373.987 230.738 375.715 229.355C374.052 228.266 372.477 227.049 371.003 225.716C364.361 219.639 358.83 213.543 358.83 213.543L409.559 142.744L407.94 140.961Z" fill="#336699"/>
</g>
<path opacity="0.5" d="M407.94 140.961L407.012 141.561C405.665 143.053 402.754 146.31 400.498 148.985L366.981 192.946C366.981 192.946 365.944 194.11 364.307 196.039C351.733 212.797 340.78 227.918 340.106 230.611C340.106 230.702 340.106 230.793 340.106 230.866C339.67 235.214 341.78 238.526 352.516 242.656C354.426 243.384 358.211 241.747 363.178 238.562C360.655 238.055 358.244 237.093 356.064 235.724C349.968 231.848 354.954 227.972 354.954 227.972C354.954 227.972 362.869 231.139 370.675 233.267C372.294 232.048 373.987 230.738 375.715 229.355C374.052 228.266 372.477 227.049 371.003 225.716C364.361 219.639 358.83 213.543 358.83 213.543L409.559 142.744L407.94 140.961Z" fill="white"/>
<path d="M353.353 243.785C352.944 243.789 352.537 243.722 352.152 243.584C342.108 239.709 338.578 236.306 339.178 230.847C339.67 226.317 376.152 178.808 397.841 150.896C400.425 147.584 406.848 140.506 407.121 140.215C407.199 140.118 407.295 140.038 407.405 139.98C407.515 139.922 407.635 139.887 407.759 139.877C407.882 139.868 408.006 139.883 408.124 139.923C408.241 139.963 408.349 140.027 408.441 140.11C408.533 140.193 408.607 140.294 408.658 140.407C408.71 140.52 408.738 140.642 408.74 140.766C408.743 140.89 408.72 141.013 408.673 141.128C408.626 141.243 408.556 141.347 408.468 141.434C408.468 141.434 401.808 148.712 399.279 152.024C364.234 197.113 341.344 228.136 341.053 231.048C340.634 234.923 342.435 237.944 352.88 241.965C360.395 244.858 406.029 202.881 434.87 173.968C435.041 173.796 435.273 173.7 435.516 173.7C435.758 173.7 435.99 173.796 436.161 173.968C436.333 174.139 436.429 174.371 436.429 174.614C436.429 174.856 436.333 175.088 436.161 175.26C428.938 182.392 367.291 243.785 353.353 243.785Z" fill="#282F34"/>
<path d="M553.888 137.431L528.923 154.244C532.562 153.734 549.812 147.62 549.812 147.62" fill="white"/>
<path d="M528.923 155.153C528.74 155.156 528.561 155.101 528.411 154.997C528.261 154.893 528.147 154.744 528.086 154.571C528.009 154.382 528 154.172 528.06 153.976C528.119 153.781 528.244 153.612 528.414 153.498L553.396 136.685C553.494 136.616 553.604 136.568 553.72 136.543C553.837 136.518 553.957 136.516 554.074 136.538C554.191 136.56 554.302 136.605 554.402 136.671C554.501 136.737 554.586 136.822 554.652 136.921C554.785 137.125 554.832 137.372 554.784 137.61C554.737 137.848 554.598 138.058 554.397 138.195L533.927 151.987C540.204 150.059 549.393 146.82 549.521 146.765C549.762 146.686 550.025 146.705 550.252 146.819C550.479 146.934 550.651 147.133 550.731 147.375C550.81 147.616 550.791 147.879 550.677 148.106C550.562 148.333 550.362 148.505 550.121 148.585C549.412 148.821 532.671 154.735 529.051 155.244L528.923 155.153Z" fill="#282F34"/>
<path d="M552.869 148.021C552.657 148.016 552.454 147.94 552.292 147.805C552.129 147.669 552.018 147.482 551.977 147.275C551.935 147.038 551.987 146.795 552.123 146.597C552.26 146.399 552.469 146.264 552.705 146.219L558.309 145.2C558.548 145.157 558.794 145.21 558.994 145.346C559.195 145.482 559.334 145.691 559.383 145.928C559.406 146.048 559.405 146.171 559.38 146.29C559.355 146.41 559.307 146.523 559.237 146.623C559.168 146.723 559.078 146.808 558.975 146.873C558.872 146.938 558.757 146.982 558.637 147.002L553.032 148.021H552.869Z" fill="#282F34"/>
<path d="M367.91 213.216C364.057 213.101 360.226 213.827 356.683 215.345L367.91 213.216Z" fill="white"/>
<path d="M356.683 216.309C356.441 216.355 356.192 216.303 355.989 216.165C355.786 216.027 355.646 215.813 355.6 215.572C355.554 215.331 355.606 215.081 355.744 214.878C355.882 214.675 356.096 214.535 356.337 214.489C360.011 212.912 363.986 212.16 367.982 212.288C368.102 212.297 368.218 212.33 368.325 212.384C368.432 212.439 368.527 212.514 368.605 212.605C368.683 212.696 368.742 212.802 368.779 212.916C368.815 213.03 368.829 213.151 368.819 213.27C368.796 213.51 368.681 213.731 368.497 213.888C368.314 214.044 368.077 214.123 367.837 214.107C364.133 214 360.451 214.702 357.047 216.163C356.938 216.239 356.813 216.289 356.683 216.309Z" fill="#282F34"/>
<path d="M422.315 188.269C422.315 188.269 436.343 183.975 440.055 181.119L422.315 188.269Z" fill="white"/>
<path d="M422.315 189.179C422.073 189.213 421.828 189.15 421.634 189.003C421.439 188.856 421.311 188.638 421.277 188.397C421.244 188.156 421.307 187.911 421.454 187.716C421.601 187.522 421.819 187.393 422.06 187.36C422.187 187.36 435.961 183.102 439.51 180.373C439.7 180.226 439.941 180.161 440.18 180.191C440.419 180.222 440.636 180.346 440.783 180.536C440.925 180.729 440.988 180.969 440.957 181.206C440.927 181.443 440.806 181.66 440.619 181.81C436.798 184.74 423.17 188.925 422.588 189.088C422.504 189.137 422.411 189.168 422.315 189.179Z" fill="#282F34"/>
<path d="M443.494 179.699C443.494 179.699 445.787 177.698 446.642 177.698L443.494 179.699Z" fill="white"/>
<path d="M443.494 180.609C443.364 180.608 443.235 180.58 443.116 180.527C442.997 180.473 442.891 180.396 442.803 180.3C442.635 180.127 442.541 179.895 442.541 179.654C442.541 179.413 442.635 179.181 442.803 179.008C443.832 177.947 445.126 177.18 446.551 176.788C446.793 176.788 447.024 176.884 447.195 177.054C447.365 177.225 447.461 177.457 447.461 177.698C447.456 177.938 447.359 178.166 447.189 178.336C447.02 178.506 446.791 178.603 446.551 178.608C445.614 179.08 444.755 179.694 444.004 180.427C443.858 180.54 443.679 180.604 443.494 180.609Z" fill="#282F34"/>
<path d="M528.923 155.153C528.698 155.151 528.482 155.066 528.314 154.915C528.147 154.765 528.04 154.558 528.013 154.335L525.739 130.953C525.727 130.834 525.739 130.713 525.773 130.598C525.808 130.483 525.865 130.376 525.941 130.283C526.017 130.19 526.111 130.113 526.217 130.056C526.322 130 526.438 129.964 526.558 129.952C526.677 129.94 526.798 129.952 526.913 129.987C527.028 130.021 527.135 130.078 527.228 130.154C527.321 130.231 527.398 130.324 527.454 130.43C527.511 130.536 527.547 130.652 527.558 130.771L529.851 154.171C529.864 154.289 529.852 154.409 529.818 154.523C529.783 154.638 529.726 154.744 529.649 154.835C529.573 154.927 529.479 155.002 529.373 155.057C529.267 155.111 529.151 155.144 529.032 155.153H528.923Z" fill="#282F34"/>
<path d="M340.07 231.12C340.07 231.12 336.849 243.439 357.502 248.552C367.309 250.972 432.213 266.748 432.213 266.748C432.213 266.748 438.017 254.302 434.706 254.302C431.394 254.302 371.549 214.508 371.549 214.508" fill="white"/>
<path d="M349.714 245.841L424.971 265.055L426.972 260.288C426.972 260.288 398.624 254.611 380.919 245.731C363.215 236.852 362.087 239.636 356.009 235.778C349.932 231.921 354.899 228.027 354.899 228.027C354.899 228.027 371.512 234.668 380.373 235.214C389.235 235.76 377.608 231.903 370.966 225.807C368.219 223.296 365.671 220.767 363.688 218.693L340.033 231.102C340.033 231.102 337.741 240.036 349.714 245.841Z" fill="#336699"/>
<path opacity="0.5" d="M349.714 245.841L424.971 265.055L426.972 260.288C426.972 260.288 398.624 254.611 380.919 245.731C363.215 236.852 362.087 239.636 356.009 235.778C349.932 231.921 354.899 228.027 354.899 228.027C354.899 228.027 371.512 234.668 380.373 235.214C389.235 235.76 377.608 231.903 370.966 225.807C368.219 223.296 365.671 220.767 363.688 218.693L340.033 231.102C340.033 231.102 337.741 240.036 349.714 245.841Z" fill="white"/>
<path d="M432.213 267.803H431.995C431.995 267.803 367.091 251.954 357.283 249.607C349.095 247.587 343.545 244.148 340.798 239.581C339.197 237.051 338.625 234.005 339.197 231.066C339.261 230.834 339.412 230.636 339.619 230.514C339.826 230.392 340.073 230.355 340.306 230.411C340.537 230.475 340.734 230.627 340.853 230.835C340.972 231.043 341.005 231.289 340.943 231.521C340.531 234.008 341.05 236.56 342.399 238.69C344.892 242.875 350.059 245.968 357.72 247.788C366.818 250.062 424.534 264.164 431.703 265.874C433.941 260.925 435.343 256.121 434.706 255.375C431.249 255.375 381.119 222.077 371.112 215.345C370.911 215.208 370.772 214.998 370.724 214.76C370.677 214.522 370.724 214.274 370.857 214.071C370.923 213.972 371.008 213.887 371.107 213.821C371.206 213.755 371.318 213.71 371.435 213.688C371.552 213.666 371.672 213.667 371.789 213.693C371.905 213.718 372.015 213.766 372.113 213.834C395.676 229.537 431.813 253.064 434.742 253.519C435.039 253.524 435.33 253.601 435.59 253.743C435.85 253.886 436.071 254.09 436.234 254.338C437.744 256.722 434.16 264.837 433.014 267.275C432.942 267.429 432.83 267.56 432.688 267.653C432.547 267.746 432.382 267.798 432.213 267.803Z" fill="#282F34"/>
<path d="M434.706 254.356C434.706 254.356 456.013 264.327 457.669 267.093C459.325 269.859 463.127 284.234 463.127 288.673C463.127 293.113 462.582 293.095 459.816 293.095C457.05 293.095 449.845 282.578 448.189 280.358C446.533 278.138 442.73 278.138 437.672 274.899C436.262 274.005 435.051 272.832 434.112 271.452C433.173 270.072 432.527 268.514 432.213 266.875L434.706 254.356Z" fill="white"/>
<path d="M459.889 294.005C457.505 294.005 453.575 289.256 448.407 282.123C448.043 281.613 447.752 281.195 447.534 280.922C446.494 279.888 445.192 279.158 443.767 278.811C441.472 277.995 439.28 276.915 437.235 275.591C435.704 274.628 434.388 273.36 433.367 271.867C432.347 270.374 431.644 268.687 431.303 266.911C431.294 266.821 431.294 266.729 431.303 266.638L433.796 254.174C433.824 254.04 433.881 253.914 433.963 253.804C434.044 253.694 434.149 253.603 434.269 253.537C434.393 253.475 434.53 253.443 434.669 253.443C434.808 253.443 434.945 253.475 435.07 253.537C438.709 255.211 456.723 263.763 458.433 266.62C460.143 269.477 464.092 284.106 464.092 288.673C464.092 293.24 463.255 294.005 459.889 294.005ZM433.141 266.838C433.465 268.331 434.085 269.744 434.963 270.994C435.841 272.244 436.96 273.305 438.254 274.117C440.186 275.36 442.256 276.374 444.422 277.137C446.174 277.592 447.759 278.54 448.989 279.867C449.208 280.14 449.517 280.558 449.881 281.086C456.541 290.293 458.979 292.221 459.889 292.221C462.29 292.221 462.29 292.221 462.29 288.71C462.29 284.416 458.506 270.277 456.832 267.585C455.776 265.765 443.494 259.578 435.306 255.703L433.141 266.838Z" fill="#282F34"/>
<path d="M425.608 265.583C425.518 265.6 425.425 265.6 425.335 265.583C425.22 265.548 425.114 265.49 425.022 265.413C424.93 265.336 424.854 265.241 424.8 265.134C424.745 265.027 424.713 264.91 424.705 264.79C424.697 264.67 424.713 264.55 424.753 264.437L428.064 254.156C428.098 254.038 428.155 253.929 428.232 253.834C428.309 253.739 428.404 253.66 428.512 253.602C428.62 253.545 428.739 253.51 428.861 253.499C428.982 253.489 429.105 253.503 429.222 253.541C429.338 253.579 429.445 253.64 429.537 253.72C429.63 253.801 429.705 253.899 429.758 254.009C429.811 254.119 429.842 254.239 429.848 254.361C429.854 254.483 429.835 254.605 429.793 254.72L426.481 265.001C426.412 265.175 426.291 265.323 426.135 265.427C425.979 265.531 425.795 265.585 425.608 265.583Z" fill="#282F34"/>
<path d="M587.168 176.824C587.168 176.824 581.709 195.639 579.416 206.702C577.124 217.765 561.712 262.053 561.712 262.053L574.995 270.35C574.995 270.35 604.326 209.577 609.912 196.257C615.498 182.938 613.788 173.003 608.256 167.472" fill="white"/>
<path d="M574.994 271.315C574.826 271.311 574.663 271.26 574.521 271.169L561.239 262.872C561.062 262.763 560.928 262.597 560.859 262.402C560.789 262.207 560.788 261.994 560.856 261.798C561.002 261.362 576.359 217.455 578.524 206.593C580.69 195.73 586.258 176.824 586.258 176.624C586.325 176.383 586.486 176.178 586.704 176.056C586.923 175.933 587.181 175.902 587.422 175.969C587.663 176.037 587.868 176.197 587.991 176.416C588.114 176.634 588.145 176.892 588.077 177.134C588.077 177.316 582.527 196.039 580.344 206.938C578.27 217.328 564.896 255.866 562.84 261.725L574.649 269.095C578.288 261.434 603.962 208.121 609.057 195.893C613.97 184.084 613.442 174.059 607.601 168.109C607.432 167.94 607.337 167.711 607.337 167.472C607.337 167.233 607.432 167.004 607.601 166.835C607.77 166.666 607.999 166.571 608.238 166.571C608.477 166.571 608.706 166.666 608.875 166.835C615.28 173.222 615.953 184.084 610.694 196.603C605.236 209.759 576.123 270.186 575.813 270.805C575.759 270.92 575.681 271.022 575.583 271.104C575.486 271.186 575.372 271.245 575.249 271.278L574.994 271.315Z" fill="#282F34"/>
<path d="M564.223 255.721C565.223 255.721 577.833 262.672 577.833 262.672L564.223 255.721Z" fill="#282F34"/>
<path d="M476.956 155.772C473.899 155.263 457.578 144.563 446.369 135.902C435.161 127.241 429.047 125.713 429.047 125.713L421.405 130.808C420.248 127.084 420.615 123.053 422.424 119.599C425.48 113.995 436.18 108.39 446.879 104.315C457.578 100.239 469.805 96.7634 477.466 96.7634C485.126 96.7634 487.146 99.8203 487.146 103.896C487.146 107.972 487.146 120.709 484.598 130.389C482.051 140.069 476.956 155.772 476.956 155.772Z" fill="white"/>
<g style="mix-blend-mode:multiply">
<path d="M472.153 102.641C472.153 102.641 467.44 116.76 462.727 121C459.088 124.052 455.15 126.728 450.973 128.988C450.973 128.988 448.153 119.108 441.093 119.108C434.033 119.108 423.206 123.82 423.206 123.82C423.206 123.82 423.206 120.054 432.14 115.341L441.093 110.647L461.799 102.641H472.153Z" fill="#336699"/>
</g>
<path opacity="0.5" d="M472.153 102.641C472.153 102.641 467.44 116.76 462.727 121C459.088 124.052 455.15 126.728 450.973 128.988C450.973 128.988 448.153 119.108 441.093 119.108C434.033 119.108 423.206 123.82 423.206 123.82C423.206 123.82 423.206 120.054 432.14 115.341L441.093 110.647L461.799 102.641H472.153Z" fill="white"/>
<path d="M476.956 156.682H476.792C473.408 156.118 456.65 145 445.86 136.667C436.489 129.388 430.703 127.223 429.229 126.75L421.951 131.608C421.832 131.68 421.699 131.727 421.562 131.745C421.424 131.764 421.284 131.755 421.15 131.717C421.019 131.672 420.901 131.598 420.803 131.5C420.705 131.403 420.631 131.284 420.586 131.153C419.962 129.189 419.736 127.12 419.92 125.068C420.105 123.015 420.696 121.02 421.66 119.199C425.299 112.393 438.873 106.462 446.606 103.496C452.683 101.185 467.858 95.799 477.538 95.799C484.653 95.799 488.128 98.4192 488.128 103.842C488.128 108.027 488.128 120.782 485.545 130.571C482.961 140.36 477.939 155.936 477.884 156.045C477.826 156.242 477.702 156.412 477.533 156.528C477.364 156.644 477.16 156.698 476.956 156.682ZM429.047 124.803H429.265C429.52 124.803 435.707 126.477 446.933 135.156C457.469 143.29 472.153 152.97 476.356 154.626C477.447 151.205 481.542 138.25 483.634 130.025C486.163 120.472 486.163 107.899 486.163 103.769C486.163 100.694 485.126 97.5458 477.393 97.5458C470.806 97.5458 459.779 100.312 447.133 105.133C434.487 109.955 425.663 115.396 423.152 119.999C421.646 122.859 421.195 126.157 421.878 129.315L428.465 124.93C428.638 124.822 428.844 124.777 429.047 124.803Z" fill="#282F34"/>
<path d="M431.594 91.1045C437.564 97.6875 441.754 105.685 443.767 114.34C447.079 128.733 467.895 145.655 472.881 145.655C477.866 145.655 477.52 120.982 475.865 113.795C474.209 106.607 467.567 87.2288 467.567 87.2288C467.567 87.2288 441.074 74.4919 431.594 91.1045Z" fill="white"/>
<path d="M472.953 146.565C467.604 146.565 446.315 129.17 442.948 114.541C440.953 106.057 436.847 98.2148 431.012 91.7414C430.872 91.6004 430.782 91.4172 430.755 91.22C430.729 91.0229 430.768 90.8225 430.867 90.6496C440.583 73.5093 467.749 86.2645 468.022 86.41C468.132 86.4619 468.231 86.5353 468.312 86.6259C468.393 86.7166 468.456 86.8226 468.495 86.9377C468.768 87.7202 475.173 106.425 476.829 113.594C478.266 119.89 478.94 140.579 475.118 145.4C474.873 145.749 474.549 146.036 474.173 146.238C473.797 146.441 473.38 146.552 472.953 146.565ZM432.795 90.9772C438.632 97.587 442.729 105.548 444.713 114.14C448.025 128.424 468.714 144.745 472.953 144.745C472.953 144.745 473.299 144.745 473.681 144.254C476.774 140.378 476.574 120.6 475.046 113.995C473.517 107.39 467.767 90.6132 466.894 87.8839C463.855 86.5374 441.384 77.1303 432.795 90.9772Z" fill="#282F34"/>
<g style="mix-blend-mode:multiply">
<path d="M472.152 102.641C472.152 102.641 467.44 116.76 462.727 121C459.088 124.052 455.15 126.728 450.973 128.988C450.973 128.988 448.152 119.108 441.092 119.108C434.032 119.108 423.206 123.82 423.206 123.82C423.206 123.82 423.206 120.054 432.14 115.341L441.092 110.647L461.799 102.641H472.152Z" fill="#336699"/>
</g>
<path opacity="0.5" d="M472.152 102.641C472.152 102.641 467.44 116.76 462.727 121C459.088 124.052 455.15 126.728 450.973 128.988C450.973 128.988 448.152 119.108 441.092 119.108C434.032 119.108 423.206 123.82 423.206 123.82C423.206 123.82 423.206 120.054 432.14 115.341L441.092 110.647L461.799 102.641H472.152Z" fill="white"/>
<path d="M431.594 91.1045C437.564 97.6875 441.754 105.685 443.767 114.34C447.079 128.733 467.895 145.655 472.881 145.655C477.866 145.655 477.52 120.982 475.865 113.795C474.209 106.607 467.567 87.2288 467.567 87.2288C467.567 87.2288 441.074 74.4919 431.594 91.1045Z" fill="white"/>
<path d="M472.953 146.565C467.603 146.565 446.315 129.17 442.948 114.541C440.953 106.057 436.847 98.2148 431.012 91.7414C430.872 91.6004 430.781 91.4172 430.755 91.22C430.729 91.0229 430.768 90.8225 430.866 90.6496C440.583 73.5093 467.749 86.2645 468.022 86.41C468.132 86.4619 468.231 86.5353 468.312 86.6259C468.393 86.7166 468.456 86.8226 468.495 86.9377C468.768 87.7202 475.173 106.425 476.829 113.594C478.266 119.89 478.939 140.579 475.118 145.4C474.873 145.749 474.549 146.036 474.173 146.238C473.797 146.441 473.38 146.552 472.953 146.565ZM432.795 90.9772C438.632 97.587 442.729 105.548 444.713 114.14C448.025 128.424 468.713 144.745 472.953 144.745C472.953 144.745 473.299 144.745 473.681 144.254C476.774 140.378 476.574 120.6 475.046 113.995C473.517 107.39 467.767 90.6132 466.894 87.8839C463.855 86.5374 441.383 77.1303 432.795 90.9772Z" fill="#282F34"/>
<path d="M414.108 64.4297C418.012 75.046 422.841 85.2992 428.538 95.0712C436.944 108.882 453.174 116.706 462.181 113.103C471.188 109.5 477.32 97.8733 474.918 79.8596C474.391 75.893 470.933 74.2735 469.824 70.7618C465.839 58.0248 461.781 45.7427 460.38 41.0664C458.56 35.0436 444.149 29.039 429.138 33.2422C414.126 37.4455 411.707 50.0005 414.108 64.4297Z" fill="white"/>
<path d="M463.983 53.4031C463.983 53.4031 458.524 57.4607 446.26 55.1135C433.996 52.7662 425.553 53.2939 426.027 56.5327C426.5 59.7716 427.446 64.0475 427.446 64.0475C427.446 64.0475 412.726 51.3106 426.063 47.9262C435.67 45.4334 441.22 49.2181 443.567 49.7457C445.914 50.2734 463.983 53.4031 463.983 53.4031Z" fill="#336699"/>
<path opacity="0.5" d="M463.983 53.4031C463.983 53.4031 458.524 57.4607 446.26 55.1135C433.996 52.7662 425.553 53.2939 426.027 56.5327C426.5 59.7716 427.446 64.0475 427.446 64.0475C427.446 64.0475 412.726 51.3106 426.063 47.9262C435.67 45.4334 441.22 49.2181 443.567 49.7457C445.914 50.2734 463.983 53.4031 463.983 53.4031Z" fill="white"/>
<path d="M457.159 114.959C447.388 114.959 434.67 106.971 427.755 95.5989C422.01 85.7706 417.139 75.4565 413.199 64.7754C413.188 64.7274 413.188 64.6778 413.199 64.6298C410.196 46.707 415.328 36.1354 428.865 32.3507C444.568 27.9473 459.325 34.425 461.235 40.7753C461.89 42.9769 463.055 46.8344 464.674 51.6927C466.494 57.1514 468.55 63.7564 470.661 70.5252C471.189 71.8718 471.967 73.1066 472.953 74.1644C474.425 75.709 475.412 77.651 475.792 79.7504C478.485 99.9658 470.697 110.683 462.509 113.958C460.806 114.63 458.99 114.97 457.159 114.959ZM415 64.1931C418.877 74.7235 423.662 84.8968 429.302 94.5981C437.763 108.481 453.757 115.487 461.854 112.248C469.405 109.227 476.574 99.1652 474.009 79.9688C473.675 78.2151 472.848 76.5929 471.625 75.2925C470.475 74.0318 469.59 72.553 469.023 70.9437C466.912 64.1931 464.783 57.5699 463.037 52.1294C461.49 47.3257 460.253 43.45 459.58 41.212C458.051 36.1536 444.604 29.7669 429.447 33.9337C416.929 37.5364 412.216 47.3985 415 64.1931Z" fill="#282F34"/>
<path d="M424.935 84.2447C424.935 84.2447 415.309 80.0415 414.709 84.2447C414.108 88.4479 418.348 91.523 422.515 93.3426C423.554 93.9109 424.738 94.1573 425.918 94.0504C427.097 93.9435 428.218 93.488 429.138 92.7421" fill="white"/>
<path d="M425.554 94.9438C424.386 94.9293 423.234 94.6753 422.169 94.1978C416.219 91.6504 413.253 88.1023 413.817 84.2084C413.865 83.7633 414.021 83.3366 414.272 82.9656C414.523 82.5946 414.86 82.2904 415.255 82.0795C418.148 80.46 424.571 83.1894 425.299 83.5169C425.504 83.6249 425.66 83.8069 425.735 84.0259C425.81 84.2449 425.799 84.4844 425.704 84.6955C425.609 84.9067 425.437 85.0736 425.223 85.1623C425.009 85.2509 424.769 85.2547 424.553 85.1728C422.151 84.1174 417.729 82.7891 416.128 83.6625C415.983 83.7421 415.859 83.8572 415.77 83.9972C415.681 84.1372 415.629 84.2975 415.619 84.4631C415.036 88.5208 419.913 91.2501 422.897 92.5238C423.773 93.0106 424.772 93.2303 425.771 93.156C426.77 93.0816 427.726 92.7164 428.519 92.1053C428.695 91.9574 428.919 91.881 429.148 91.8915C429.377 91.9019 429.594 91.9984 429.754 92.1616C429.915 92.3248 430.009 92.5427 430.016 92.7718C430.023 93.0009 429.944 93.2242 429.793 93.3972C428.626 94.4297 427.111 94.9823 425.554 94.9438Z" fill="#282F34"/>
<path d="M464.219 60.4812C464.219 60.4812 453.502 57.9338 458.087 72.2174C458.997 75.0377 465.238 78.3311 465.238 78.3311C465.238 78.3311 464.729 82.9165 462.181 83.4259" fill="white"/>
<path d="M462.163 84.3358C461.954 84.3325 461.753 84.2589 461.591 84.1268C461.429 83.9947 461.317 83.8119 461.272 83.6079C461.248 83.4896 461.248 83.3677 461.272 83.2493C461.296 83.131 461.343 83.0186 461.411 82.9187C461.479 82.8188 461.565 82.7333 461.667 82.6674C461.768 82.6014 461.881 82.5562 462 82.5344C463.31 82.2614 463.983 80.0962 464.238 78.8952C462.564 77.9491 458.087 75.2561 457.232 72.5631C455.522 67.25 455.667 63.4653 457.651 61.3182C460.089 58.6799 464.238 59.6442 464.42 59.6806C464.653 59.7368 464.855 59.8831 464.981 60.0877C465.107 60.2922 465.148 60.5384 465.093 60.7724C465.067 60.8893 465.018 60.9999 464.949 61.0975C464.88 61.1951 464.792 61.2778 464.69 61.3407C464.588 61.4035 464.474 61.4452 464.356 61.4632C464.238 61.4812 464.117 61.4752 464.001 61.4456C464.001 61.4456 460.689 60.6996 458.979 62.5555C457.269 64.4115 457.487 67.432 458.979 71.9991C459.561 73.8187 463.401 76.3843 465.675 77.5852C465.833 77.6753 465.962 77.8091 466.046 77.9704C466.129 78.1318 466.165 78.3139 466.148 78.495C466.148 79.0408 465.475 83.7717 462.363 84.3903L462.163 84.3358Z" fill="#282F34"/>
<path d="M456.559 93.6155C456.559 93.6155 448.917 95.1439 445.86 91.5776L456.559 93.6155Z" fill="white"/>
<path d="M452.901 94.9438C451.496 95.0553 450.083 94.8735 448.752 94.4099C447.421 93.9463 446.2 93.2111 445.168 92.2509C445.091 92.1601 445.032 92.0548 444.995 91.9412C444.958 91.8276 444.943 91.7079 444.953 91.5887C444.962 91.4696 444.995 91.3535 445.049 91.247C445.103 91.1405 445.178 91.0457 445.268 90.9681C445.359 90.8904 445.464 90.8314 445.578 90.7944C445.692 90.7574 445.811 90.7431 445.931 90.7524C446.05 90.7617 446.166 90.7944 446.272 90.8485C446.379 90.9027 446.474 90.9773 446.551 91.0681C449.226 94.1978 456.322 92.8877 456.395 92.8877C456.511 92.8613 456.632 92.8589 456.749 92.8808C456.866 92.9026 456.977 92.9481 457.076 93.0146C457.175 93.0811 457.259 93.167 457.323 93.2673C457.388 93.3675 457.431 93.4798 457.45 93.5973C457.474 93.7144 457.475 93.8351 457.452 93.9524C457.43 94.0697 457.384 94.1814 457.318 94.2811C457.252 94.3808 457.167 94.4666 457.068 94.5334C456.969 94.6003 456.858 94.647 456.741 94.6709C455.471 94.8721 454.187 94.9634 452.901 94.9438Z" fill="#282F34"/>
<path d="M445.351 69.67C445.351 69.67 439.746 67.6321 436.689 70.1795C435.053 71.3183 433.788 72.9128 433.05 74.7648" fill="white"/>
<path d="M433.123 75.6564H432.904C432.788 75.6267 432.679 75.5744 432.584 75.5025C432.488 75.4306 432.407 75.3405 432.346 75.2374C432.286 75.1343 432.246 75.0202 432.229 74.9016C432.212 74.783 432.219 74.6623 432.249 74.5464C433.01 72.5179 434.352 70.7586 436.107 69.488C439.528 66.6495 445.423 68.742 445.66 68.833C445.773 68.8715 445.878 68.9327 445.968 69.0128C446.057 69.0929 446.13 69.1902 446.181 69.299C446.232 69.4077 446.26 69.5257 446.264 69.6457C446.269 69.7657 446.249 69.8854 446.205 69.9975C446.123 70.2243 445.954 70.4092 445.736 70.5115C445.518 70.6139 445.268 70.6253 445.041 70.5434C445.041 70.5434 439.891 68.7238 437.271 70.8891C435.829 71.9353 434.702 73.3579 434.014 75.0013C433.956 75.1918 433.837 75.3583 433.677 75.4763C433.516 75.5942 433.322 75.6574 433.123 75.6564Z" fill="#282F34"/>
<path d="M445.205 78.3857C445.933 80.0779 445.787 81.752 444.877 82.1341C443.967 82.5162 442.657 81.479 441.929 79.7868C441.202 78.0946 441.365 76.4388 442.275 76.0385C443.185 75.6382 444.495 76.7481 445.205 78.3857Z" fill="#282F34"/>
<path d="M463.528 69.4699C464.256 71.1439 464.092 72.8179 463.2 73.2182C462.309 73.6185 460.962 72.5449 460.253 70.8709C459.543 69.1969 459.67 67.5047 460.58 67.1226C461.49 66.7405 462.8 67.7959 463.528 69.4699Z" fill="#282F34"/>
<path d="M422.26 86.6648C422.26 86.6648 428.337 82.2432 427.227 78.3676C426.117 74.4919 423.916 74.4919 426.136 72.2902C428.355 70.0885 429.993 68.9604 429.447 65.6488C428.901 62.3372 420.04 56.7875 422.806 53.4759C425.572 50.1643 424.462 46.1976 447.152 51.8019C469.842 57.4061 484.234 48.4903 477.593 40.193C470.952 31.8958 465.42 30.7858 465.42 30.7858C465.42 30.7858 478.157 25.3271 467.64 19.7047C457.123 14.0822 433.323 14.246 420.04 24.6903C406.757 35.1346 409.523 43.9959 409.523 43.9959C409.523 43.9959 402.336 45.1058 401.772 56.187C401.207 67.2682 422.26 86.6648 422.26 86.6648Z" fill="#282F34"/>
<path d="M458.469 49.6002C453.633 49.3971 448.871 48.3374 444.404 46.4705C440.904 44.9778 437.175 44.0918 433.378 43.8503C424.589 43.8503 422.769 48.8359 422.697 49.0543C422.672 49.132 422.632 49.2039 422.579 49.2656C422.526 49.3273 422.461 49.3776 422.388 49.4133C422.314 49.4491 422.235 49.4695 422.153 49.4735C422.072 49.4775 421.991 49.4649 421.914 49.4364C421.836 49.4116 421.764 49.3717 421.702 49.3189C421.64 49.266 421.588 49.2014 421.551 49.1286C421.514 49.0559 421.491 48.9765 421.485 48.895C421.479 48.8136 421.488 48.7316 421.514 48.654C421.605 48.4174 423.643 42.5948 433.378 42.5948C437.321 42.8281 441.194 43.7455 444.823 45.306C450.481 47.3257 456.359 49.4182 463.746 47.7806C467.749 46.889 470.096 45.4516 470.679 43.541C471.443 41.0846 469.077 38.519 469.059 38.4826C468.944 38.3667 468.879 38.2096 468.879 38.0459C468.879 37.8822 468.944 37.7252 469.059 37.6092C469.18 37.4967 469.34 37.4341 469.505 37.4341C469.67 37.4341 469.83 37.4967 469.951 37.6092C470.06 37.7366 472.826 40.7389 471.861 43.8867C471.115 46.2704 468.477 47.9808 464.001 48.9815C462.184 49.3833 460.33 49.5907 458.469 49.6002Z" fill="white"/>
<path d="M417.875 48.0717C417.709 48.0578 417.556 47.9795 417.447 47.8537C417.338 47.7279 417.283 47.5645 417.293 47.3985C417.293 47.2711 418.366 35.262 429.011 32.569C435.288 30.986 442.548 32.1687 448.389 33.1149C452.028 33.7153 455.285 34.243 456.65 33.7153C456.8 33.6832 456.956 33.7062 457.09 33.7801C457.225 33.854 457.328 33.9737 457.381 34.1175C457.434 34.2612 457.433 34.4193 457.379 34.5626C457.325 34.706 457.221 34.8251 457.087 34.8981C455.413 35.5167 452.228 35.0072 448.189 34.3522C442.457 33.406 435.325 32.2597 429.32 33.7699C419.531 36.2627 418.548 47.3803 418.53 47.4895C418.525 47.5708 418.505 47.6503 418.469 47.7236C418.434 47.7969 418.384 47.8625 418.323 47.9166C418.263 47.9707 418.192 48.0123 418.115 48.0389C418.038 48.0655 417.956 48.0767 417.875 48.0717Z" fill="white"/>
<path d="M410.833 66.8497C410.71 66.8476 410.589 66.8096 410.487 66.7405C408.854 65.3706 407.587 63.615 406.802 61.6325C406.018 59.6501 405.739 57.5034 405.993 55.3864C406.502 47.3803 412.653 47.2893 412.725 47.2893C412.874 47.3147 413.008 47.3916 413.105 47.5064C413.202 47.6213 413.255 47.7668 413.255 47.9171C413.255 48.0674 413.202 48.2129 413.105 48.3277C413.008 48.4426 412.874 48.5195 412.725 48.5448C412.507 48.5448 407.667 48.654 407.267 55.4592C407.02 57.3632 407.252 59.2984 407.942 61.0902C408.631 62.8819 409.756 64.4737 411.215 65.7216C411.282 65.767 411.339 65.8256 411.383 65.8937C411.427 65.9619 411.457 66.0382 411.471 66.1181C411.484 66.198 411.481 66.2798 411.463 66.3587C411.444 66.4375 411.409 66.5117 411.361 66.5768C411.305 66.6654 411.227 66.7376 411.134 66.7856C411.041 66.8336 410.937 66.8558 410.833 66.8497Z" fill="white"/>
<path d="M414.6 61.6821C414.481 61.6822 414.364 61.6479 414.264 61.5833C414.164 61.5188 414.085 61.4267 414.036 61.3182C413.587 60.4881 413.32 59.5716 413.254 58.6302C413.189 57.6887 413.325 56.7441 413.654 55.8595C414.456 54.1251 415.887 52.7597 417.657 52.0384C417.732 52.0062 417.812 51.9897 417.894 51.9898C417.976 51.9899 418.056 52.0067 418.131 52.039C418.206 52.0714 418.274 52.1187 418.33 52.178C418.386 52.2373 418.429 52.3075 418.457 52.3841C418.517 52.5362 418.514 52.7057 418.449 52.8557C418.385 53.0057 418.263 53.124 418.111 53.1847C416.663 53.7984 415.486 54.9169 414.8 56.3326C414.542 57.0592 414.442 57.8322 414.504 58.6006C414.567 59.3689 414.792 60.1153 415.164 60.7905C415.232 60.9428 415.238 61.1157 415.18 61.2723C415.122 61.4288 415.005 61.5564 414.854 61.6275C414.774 61.6631 414.687 61.6817 414.6 61.6821Z" fill="white"/>
<path d="M416.001 71.5442C415.9 71.5421 415.802 71.5163 415.713 71.4688C415.625 71.4214 415.549 71.3537 415.491 71.2712L413.144 67.996C413.047 67.8609 413.009 67.693 413.036 67.5292C413.063 67.3654 413.154 67.2191 413.29 67.1226C413.425 67.0261 413.593 66.9872 413.756 67.0145C413.92 67.0418 414.066 67.1331 414.163 67.2682L416.51 70.5616C416.603 70.6948 416.64 70.859 416.612 71.019C416.585 71.1789 416.496 71.3218 416.365 71.4168C416.262 71.5007 416.133 71.5458 416.001 71.5442Z" fill="white"/>
</svg>
