<svg width="45" height="43" viewBox="0 0 45 43" fill="none" xmlns="http://www.w3.org/2000/svg">
<path d="M29.5312 0.0498047L45 7.41564V23.8423L42.1875 22.503V10.408L30.9375 15.765V21.1638L28.125 22.503V15.765L16.875 10.408V15.1581L14.0625 13.8189V7.41564L29.5312 0.0498047ZM29.5312 13.4422L33.4204 11.5798L23.2471 6.03454L18.6108 8.25266L29.5312 13.4422ZM36.4526 10.1569L40.4517 8.25266L29.5312 3.04217L26.2573 4.6116L36.4526 10.1569ZM25.3125 23.8423L22.5 25.1815V25.1606L14.0625 29.1783V38.6995L22.5 34.6608V37.6741L12.6562 42.3615L0 36.314V22.1682L12.6562 16.1416L25.3125 22.1682V23.8423ZM11.25 38.6995V29.1783L2.8125 25.1606V34.6608L11.25 38.6995ZM12.6562 26.8556L20.7642 23.0052L12.6562 19.134L4.54834 23.0052L12.6562 26.8556ZM25.3125 26.8346L35.1562 22.1473L45 26.8346V37.8625L35.1562 42.5498L25.3125 37.8625V26.8346ZM33.75 38.8878V32.5055L28.125 29.827V36.2093L33.75 38.8878ZM42.1875 36.2093V29.827L36.5625 32.5055V38.8878L42.1875 36.2093ZM35.1562 30.1827L40.4517 27.6507L35.1562 25.1397L29.8608 27.6507L35.1562 30.1827Z" fill="grey"/>
</svg>
