<svg width="21" height="21" viewBox="0 0 21 21" fill="none" xmlns="http://www.w3.org/2000/svg">
<path d="M13.625 0.0234375L20.5 3.48971V11.2199L19.25 10.5897V4.89788L14.25 7.41881V9.95943L13 10.5897V7.41881L8 4.89788V7.13324L6.75 6.50301V3.48971L13.625 0.0234375ZM13.625 6.32575L15.3535 5.44934L10.832 2.83978L8.77148 3.88361L13.625 6.32575ZM16.7012 4.77972L18.4785 3.88361L13.625 1.43161L12.1699 2.17016L16.7012 4.77972ZM11.75 11.2199L10.5 11.8501V11.8403L6.75 13.731V18.2115L10.5 16.311V17.729L6.125 19.9348L0.5 17.0889V10.4321L6.125 7.59606L11.75 10.4321V11.2199ZM5.5 18.2115V13.731L1.75 11.8403V16.311L5.5 18.2115ZM6.125 12.6379L9.72852 10.826L6.125 9.00424L2.52148 10.826L6.125 12.6379ZM11.75 12.6281L16.125 10.4223L20.5 12.6281V17.8176L16.125 20.0234L11.75 17.8176V12.6281ZM15.5 18.3002V15.2967L13 14.0362V17.0397L15.5 18.3002ZM19.25 17.0397V14.0362L16.75 15.2967V18.3002L19.25 17.0397ZM16.125 14.2036L18.4785 13.0121L16.125 11.8304L13.7715 13.0121L16.125 14.2036Z" fill="black"/>
</svg>
